  0
SECTION
  2
HEADER
  9
$ACADVER
  1
AC1009
  9
$FILLMODE
 70
 0
  9
$SPLFRAME
 70
 1
  9
$EXTMIN
 10
0
 20
0
 30
0.0
  9
$EXTMAX
 10
1058.33
 20
1058.33
 30
0.0
  0
ENDSEC
  0
SECTION
  2
TABLES
  0
TABLE
  2
LAYER
 70
1
  0
LAYER
  2
0
 70
     0
 62
     7
  6
CONTINUOUS
  0
ENDTAB
  0
ENDSEC
  0
SECTION
  2
ENTITIES
  0
LINE
  8
0
 62
     0
 10
0.0950846
 20
95.5075
 30
0.0
 11
252.508
 21
95.5075
 31
0.0
  0
LINE
  8
0
 62
     0
 10
252.508
 20
95.5075
 30
0.0
 11
252.508
 21
0.257693
 31
0.0
  0
LINE
  8
0
 62
     0
 10
252.508
 20
0.257693
 30
0.0
 11
0.0950846
 21
0.257693
 31
0.0
  0
LINE
  8
0
 62
     0
 10
0.0950846
 20
0.257693
 30
0.0
 11
0.0950846
 21
95.5075
 31
0.0
  0
LINE
  8
0
 62
     0
 10
2.61965
 20
16.7831
 30
0.0
 11
16.6192
 21
16.7831
 31
0.0
  0
LINE
  8
0
 62
     0
 10
16.6192
 20
16.7831
 30
0.0
 11
16.6192
 21
2.78364
 31
0.0
  0
LINE
  8
0
 62
     0
 10
16.6192
 20
2.78364
 30
0.0
 11
2.61965
 21
2.78364
 31
0.0
  0
LINE
  8
0
 62
     0
 10
2.61965
 20
2.78364
 30
0.0
 11
2.61965
 21
16.7831
 31
0.0
  0
LINE
  8
0
 62
     0
 10
21.6697
 20
16.7831
 30
0.0
 11
35.669
 21
16.7831
 31
0.0
  0
LINE
  8
0
 62
     0
 10
35.669
 20
16.7831
 30
0.0
 11
35.669
 21
2.78364
 31
0.0
  0
LINE
  8
0
 62
     0
 10
35.669
 20
2.78364
 30
0.0
 11
21.6697
 21
2.78364
 31
0.0
  0
LINE
  8
0
 62
     0
 10
21.6697
 20
2.78364
 30
0.0
 11
21.6697
 21
16.7831
 31
0.0
  0
LINE
  8
0
 62
     0
 10
40.7197
 20
16.7831
 30
0.0
 11
54.719
 21
16.7831
 31
0.0
  0
LINE
  8
0
 62
     0
 10
54.719
 20
16.7831
 30
0.0
 11
54.719
 21
2.78364
 31
0.0
  0
LINE
  8
0
 62
     0
 10
54.719
 20
2.78364
 30
0.0
 11
40.7197
 21
2.78364
 31
0.0
  0
LINE
  8
0
 62
     0
 10
40.7197
 20
2.78364
 30
0.0
 11
40.7197
 21
16.7831
 31
0.0
  0
LINE
  8
0
 62
     0
 10
59.7697
 20
16.7831
 30
0.0
 11
73.769
 21
16.7831
 31
0.0
  0
LINE
  8
0
 62
     0
 10
73.769
 20
16.7831
 30
0.0
 11
73.769
 21
2.78364
 31
0.0
  0
LINE
  8
0
 62
     0
 10
73.769
 20
2.78364
 30
0.0
 11
59.7697
 21
2.78364
 31
0.0
  0
LINE
  8
0
 62
     0
 10
59.7697
 20
2.78364
 30
0.0
 11
59.7697
 21
16.7831
 31
0.0
  0
LINE
  8
0
 62
     0
 10
78.8197
 20
16.7831
 30
0.0
 11
92.819
 21
16.7831
 31
0.0
  0
LINE
  8
0
 62
     0
 10
92.819
 20
16.7831
 30
0.0
 11
92.819
 21
2.78364
 31
0.0
  0
LINE
  8
0
 62
     0
 10
92.819
 20
2.78364
 30
0.0
 11
78.8197
 21
2.78364
 31
0.0
  0
LINE
  8
0
 62
     0
 10
78.8197
 20
2.78364
 30
0.0
 11
78.8197
 21
16.7831
 31
0.0
  0
LINE
  8
0
 62
     0
 10
128.826
 20
16.7831
 30
0.0
 11
142.825
 21
16.7831
 31
0.0
  0
LINE
  8
0
 62
     0
 10
142.825
 20
16.7831
 30
0.0
 11
142.825
 21
2.78364
 31
0.0
  0
LINE
  8
0
 62
     0
 10
142.825
 20
2.78364
 30
0.0
 11
128.826
 21
2.78364
 31
0.0
  0
LINE
  8
0
 62
     0
 10
128.826
 20
2.78364
 30
0.0
 11
128.826
 21
16.7831
 31
0.0
  0
LINE
  8
0
 62
     0
 10
178.832
 20
16.7831
 30
0.0
 11
192.832
 21
16.7831
 31
0.0
  0
LINE
  8
0
 62
     0
 10
192.832
 20
16.7831
 30
0.0
 11
192.832
 21
2.78364
 31
0.0
  0
LINE
  8
0
 62
     0
 10
192.832
 20
2.78364
 30
0.0
 11
178.832
 21
2.78364
 31
0.0
  0
LINE
  8
0
 62
     0
 10
178.832
 20
2.78364
 30
0.0
 11
178.832
 21
16.7831
 31
0.0
  0
LINE
  8
0
 62
     0
 10
197.882
 20
16.7831
 30
0.0
 11
211.882
 21
16.7831
 31
0.0
  0
LINE
  8
0
 62
     0
 10
211.882
 20
16.7831
 30
0.0
 11
211.882
 21
2.78364
 31
0.0
  0
LINE
  8
0
 62
     0
 10
211.882
 20
2.78364
 30
0.0
 11
197.882
 21
2.78364
 31
0.0
  0
LINE
  8
0
 62
     0
 10
197.882
 20
2.78364
 30
0.0
 11
197.882
 21
16.7831
 31
0.0
  0
LINE
  8
0
 62
     0
 10
216.932
 20
16.7831
 30
0.0
 11
230.932
 21
16.7831
 31
0.0
  0
LINE
  8
0
 62
     0
 10
230.932
 20
16.7831
 30
0.0
 11
230.932
 21
2.78364
 31
0.0
  0
LINE
  8
0
 62
     0
 10
230.932
 20
2.78364
 30
0.0
 11
216.932
 21
2.78364
 31
0.0
  0
LINE
  8
0
 62
     0
 10
216.932
 20
2.78364
 30
0.0
 11
216.932
 21
16.7831
 31
0.0
  0
LINE
  8
0
 62
     0
 10
235.982
 20
16.7831
 30
0.0
 11
249.982
 21
16.7831
 31
0.0
  0
LINE
  8
0
 62
     0
 10
249.982
 20
16.7831
 30
0.0
 11
249.982
 21
2.78364
 31
0.0
  0
LINE
  8
0
 62
     0
 10
249.982
 20
2.78364
 30
0.0
 11
235.982
 21
2.78364
 31
0.0
  0
LINE
  8
0
 62
     0
 10
235.982
 20
2.78364
 30
0.0
 11
235.982
 21
16.7831
 31
0.0
  0
LINE
  8
0
 62
     0
 10
12.1447
 20
35.833
 30
0.0
 11
12.1447
 21
31.1326
 31
0.0
  0
LINE
  8
0
 62
     0
 10
12.1447
 20
31.1326
 30
0.0
 11
10.6192
 21
31.1326
 31
0.0
  0
LINE
  8
0
 62
     0
 10
10.6192
 20
31.1326
 30
0.0
 11
10.6192
 21
34.3628
 31
0.0
  0
LINE
  8
0
 62
     0
 10
10.6192
 20
34.3628
 30
0.0
 11
8.89385
 21
34.3628
 31
0.0
  0
LINE
  8
0
 62
     0
 10
8.89385
 20
34.3628
 30
0.0
 11
8.89385
 21
35.2848
 31
0.0
  0
LINE
  8
0
 62
     0
 10
8.89385
 20
35.2848
 30
0.0
 11
5.59484
 21
35.2848
 31
0.0
  0
LINE
  8
0
 62
     0
 10
5.59484
 20
35.2848
 30
0.0
 11
5.59484
 21
34.3628
 31
0.0
  0
LINE
  8
0
 62
     0
 10
5.59484
 20
34.3628
 30
0.0
 11
3.86955
 21
34.3628
 31
0.0
  0
LINE
  8
0
 62
     0
 10
3.86955
 20
34.3628
 30
0.0
 11
3.86955
 21
31.1326
 31
0.0
  0
LINE
  8
0
 62
     0
 10
3.86955
 20
31.1326
 30
0.0
 11
3.04409
 21
31.1326
 31
0.0
  0
LINE
  8
0
 62
     0
 10
3.04409
 20
31.1326
 30
0.0
 11
3.04409
 21
28.3338
 31
0.0
  0
LINE
  8
0
 62
     0
 10
3.04409
 20
28.3338
 30
0.0
 11
3.86955
 21
28.3338
 31
0.0
  0
LINE
  8
0
 62
     0
 10
3.86955
 20
28.3338
 30
0.0
 11
3.86955
 21
22.0638
 31
0.0
  0
LINE
  8
0
 62
     0
 10
3.86955
 20
22.0638
 30
0.0
 11
5.59484
 21
22.0638
 31
0.0
  0
LINE
  8
0
 62
     0
 10
5.59484
 20
22.0638
 30
0.0
 11
5.59484
 21
21.0826
 31
0.0
  0
LINE
  8
0
 62
     0
 10
5.59484
 20
21.0826
 30
0.0
 11
8.89385
 21
21.0826
 31
0.0
  0
LINE
  8
0
 62
     0
 10
8.89385
 20
21.0826
 30
0.0
 11
8.89385
 21
22.0638
 31
0.0
  0
LINE
  8
0
 62
     0
 10
8.89385
 20
22.0638
 30
0.0
 11
10.6192
 21
22.0638
 31
0.0
  0
LINE
  8
0
 62
     0
 10
10.6192
 20
22.0638
 30
0.0
 11
10.6192
 21
26.5327
 31
0.0
  0
LINE
  8
0
 62
     0
 10
10.6192
 20
26.5327
 30
0.0
 11
12.1447
 21
26.5327
 31
0.0
  0
LINE
  8
0
 62
     0
 10
12.1447
 20
26.5327
 30
0.0
 11
12.1447
 21
21.8336
 31
0.0
  0
LINE
  8
0
 62
     0
 10
12.1447
 20
21.8336
 30
0.0
 11
26.1441
 21
21.8336
 31
0.0
  0
LINE
  8
0
 62
     0
 10
26.1441
 20
21.8336
 30
0.0
 11
26.1441
 21
26.5327
 31
0.0
  0
LINE
  8
0
 62
     0
 10
26.1441
 20
26.5327
 30
0.0
 11
27.6696
 21
26.5327
 31
0.0
  0
LINE
  8
0
 62
     0
 10
27.6696
 20
26.5327
 30
0.0
 11
27.6696
 21
22.0638
 31
0.0
  0
LINE
  8
0
 62
     0
 10
27.6696
 20
22.0638
 30
0.0
 11
29.3949
 21
22.0638
 31
0.0
  0
LINE
  8
0
 62
     0
 10
29.3949
 20
22.0638
 30
0.0
 11
29.3949
 21
21.0826
 31
0.0
  0
LINE
  8
0
 62
     0
 10
29.3949
 20
21.0826
 30
0.0
 11
32.694
 21
21.0826
 31
0.0
  0
LINE
  8
0
 62
     0
 10
32.694
 20
21.0826
 30
0.0
 11
32.694
 21
22.0638
 31
0.0
  0
LINE
  8
0
 62
     0
 10
32.694
 20
22.0638
 30
0.0
 11
34.4193
 21
22.0638
 31
0.0
  0
LINE
  8
0
 62
     0
 10
34.4193
 20
22.0638
 30
0.0
 11
34.4193
 21
28.3338
 31
0.0
  0
LINE
  8
0
 62
     0
 10
34.4193
 20
28.3338
 30
0.0
 11
35.2447
 21
28.3338
 31
0.0
  0
LINE
  8
0
 62
     0
 10
35.2447
 20
28.3338
 30
0.0
 11
35.2447
 21
31.1326
 31
0.0
  0
LINE
  8
0
 62
     0
 10
35.2447
 20
31.1326
 30
0.0
 11
34.4193
 21
31.1326
 31
0.0
  0
LINE
  8
0
 62
     0
 10
34.4193
 20
31.1326
 30
0.0
 11
34.4193
 21
34.3628
 31
0.0
  0
LINE
  8
0
 62
     0
 10
34.4193
 20
34.3628
 30
0.0
 11
32.694
 21
34.3628
 31
0.0
  0
LINE
  8
0
 62
     0
 10
32.694
 20
34.3628
 30
0.0
 11
32.694
 21
35.2848
 31
0.0
  0
LINE
  8
0
 62
     0
 10
32.694
 20
35.2848
 30
0.0
 11
29.3949
 21
35.2848
 31
0.0
  0
LINE
  8
0
 62
     0
 10
29.3949
 20
35.2848
 30
0.0
 11
29.3949
 21
34.3628
 31
0.0
  0
LINE
  8
0
 62
     0
 10
29.3949
 20
34.3628
 30
0.0
 11
27.6696
 21
34.3628
 31
0.0
  0
LINE
  8
0
 62
     0
 10
27.6696
 20
34.3628
 30
0.0
 11
27.6696
 21
31.1326
 31
0.0
  0
LINE
  8
0
 62
     0
 10
27.6696
 20
31.1326
 30
0.0
 11
26.1441
 21
31.1326
 31
0.0
  0
LINE
  8
0
 62
     0
 10
26.1441
 20
31.1326
 30
0.0
 11
26.1441
 21
35.833
 31
0.0
  0
LINE
  8
0
 62
     0
 10
26.1441
 20
35.833
 30
0.0
 11
12.1447
 21
35.833
 31
0.0
  0
LINE
  8
0
 62
     0
 10
226.457
 20
35.833
 30
0.0
 11
226.457
 21
31.1326
 31
0.0
  0
LINE
  8
0
 62
     0
 10
226.457
 20
31.1326
 30
0.0
 11
224.932
 21
31.1326
 31
0.0
  0
LINE
  8
0
 62
     0
 10
224.932
 20
31.1326
 30
0.0
 11
224.932
 21
34.3628
 31
0.0
  0
LINE
  8
0
 62
     0
 10
224.932
 20
34.3628
 30
0.0
 11
223.206
 21
34.3628
 31
0.0
  0
LINE
  8
0
 62
     0
 10
223.206
 20
34.3628
 30
0.0
 11
223.206
 21
35.2848
 31
0.0
  0
LINE
  8
0
 62
     0
 10
223.206
 20
35.2848
 30
0.0
 11
219.906
 21
35.2848
 31
0.0
  0
LINE
  8
0
 62
     0
 10
219.906
 20
35.2848
 30
0.0
 11
219.906
 21
34.3628
 31
0.0
  0
LINE
  8
0
 62
     0
 10
219.906
 20
34.3628
 30
0.0
 11
218.182
 21
34.3628
 31
0.0
  0
LINE
  8
0
 62
     0
 10
218.182
 20
34.3628
 30
0.0
 11
218.182
 21
31.1326
 31
0.0
  0
LINE
  8
0
 62
     0
 10
218.182
 20
31.1326
 30
0.0
 11
217.357
 21
31.1326
 31
0.0
  0
LINE
  8
0
 62
     0
 10
217.357
 20
31.1326
 30
0.0
 11
217.357
 21
28.3338
 31
0.0
  0
LINE
  8
0
 62
     0
 10
217.357
 20
28.3338
 30
0.0
 11
218.182
 21
28.3338
 31
0.0
  0
LINE
  8
0
 62
     0
 10
218.182
 20
28.3338
 30
0.0
 11
218.182
 21
22.0638
 31
0.0
  0
LINE
  8
0
 62
     0
 10
218.182
 20
22.0638
 30
0.0
 11
219.906
 21
22.0638
 31
0.0
  0
LINE
  8
0
 62
     0
 10
219.906
 20
22.0638
 30
0.0
 11
219.906
 21
21.0826
 31
0.0
  0
LINE
  8
0
 62
     0
 10
219.906
 20
21.0826
 30
0.0
 11
223.206
 21
21.0826
 31
0.0
  0
LINE
  8
0
 62
     0
 10
223.206
 20
21.0826
 30
0.0
 11
223.206
 21
22.0638
 31
0.0
  0
LINE
  8
0
 62
     0
 10
223.206
 20
22.0638
 30
0.0
 11
224.932
 21
22.0638
 31
0.0
  0
LINE
  8
0
 62
     0
 10
224.932
 20
22.0638
 30
0.0
 11
224.932
 21
26.5327
 31
0.0
  0
LINE
  8
0
 62
     0
 10
224.932
 20
26.5327
 30
0.0
 11
226.457
 21
26.5327
 31
0.0
  0
LINE
  8
0
 62
     0
 10
226.457
 20
26.5327
 30
0.0
 11
226.457
 21
21.8336
 31
0.0
  0
LINE
  8
0
 62
     0
 10
226.457
 20
21.8336
 30
0.0
 11
240.457
 21
21.8336
 31
0.0
  0
LINE
  8
0
 62
     0
 10
240.457
 20
21.8336
 30
0.0
 11
240.457
 21
26.5327
 31
0.0
  0
LINE
  8
0
 62
     0
 10
240.457
 20
26.5327
 30
0.0
 11
241.982
 21
26.5327
 31
0.0
  0
LINE
  8
0
 62
     0
 10
241.982
 20
26.5327
 30
0.0
 11
241.982
 21
22.0638
 31
0.0
  0
LINE
  8
0
 62
     0
 10
241.982
 20
22.0638
 30
0.0
 11
243.706
 21
22.0638
 31
0.0
  0
LINE
  8
0
 62
     0
 10
243.706
 20
22.0638
 30
0.0
 11
243.706
 21
21.0826
 31
0.0
  0
LINE
  8
0
 62
     0
 10
243.706
 20
21.0826
 30
0.0
 11
247.007
 21
21.0826
 31
0.0
  0
LINE
  8
0
 62
     0
 10
247.007
 20
21.0826
 30
0.0
 11
247.007
 21
22.0638
 31
0.0
  0
LINE
  8
0
 62
     0
 10
247.007
 20
22.0638
 30
0.0
 11
248.732
 21
22.0638
 31
0.0
  0
LINE
  8
0
 62
     0
 10
248.732
 20
22.0638
 30
0.0
 11
248.732
 21
28.3338
 31
0.0
  0
LINE
  8
0
 62
     0
 10
248.732
 20
28.3338
 30
0.0
 11
249.556
 21
28.3338
 31
0.0
  0
LINE
  8
0
 62
     0
 10
249.556
 20
28.3338
 30
0.0
 11
249.556
 21
31.1326
 31
0.0
  0
LINE
  8
0
 62
     0
 10
249.556
 20
31.1326
 30
0.0
 11
248.732
 21
31.1326
 31
0.0
  0
LINE
  8
0
 62
     0
 10
248.732
 20
31.1326
 30
0.0
 11
248.732
 21
34.3628
 31
0.0
  0
LINE
  8
0
 62
     0
 10
248.732
 20
34.3628
 30
0.0
 11
247.007
 21
34.3628
 31
0.0
  0
LINE
  8
0
 62
     0
 10
247.007
 20
34.3628
 30
0.0
 11
247.007
 21
35.2848
 31
0.0
  0
LINE
  8
0
 62
     0
 10
247.007
 20
35.2848
 30
0.0
 11
243.706
 21
35.2848
 31
0.0
  0
LINE
  8
0
 62
     0
 10
243.706
 20
35.2848
 30
0.0
 11
243.706
 21
34.3628
 31
0.0
  0
LINE
  8
0
 62
     0
 10
243.706
 20
34.3628
 30
0.0
 11
241.982
 21
34.3628
 31
0.0
  0
LINE
  8
0
 62
     0
 10
241.982
 20
34.3628
 30
0.0
 11
241.982
 21
31.1326
 31
0.0
  0
LINE
  8
0
 62
     0
 10
241.982
 20
31.1326
 30
0.0
 11
240.457
 21
31.1326
 31
0.0
  0
LINE
  8
0
 62
     0
 10
240.457
 20
31.1326
 30
0.0
 11
240.457
 21
35.833
 31
0.0
  0
LINE
  8
0
 62
     0
 10
240.457
 20
35.833
 30
0.0
 11
226.457
 21
35.833
 31
0.0
  0
LINE
  8
0
 62
     0
 10
43.101
 20
35.833
 30
0.0
 11
57.1003
 21
35.833
 31
0.0
  0
LINE
  8
0
 62
     0
 10
57.1003
 20
35.833
 30
0.0
 11
57.1003
 21
21.8336
 31
0.0
  0
LINE
  8
0
 62
     0
 10
57.1003
 20
21.8336
 30
0.0
 11
43.101
 21
21.8336
 31
0.0
  0
LINE
  8
0
 62
     0
 10
43.101
 20
21.8336
 30
0.0
 11
43.101
 21
35.833
 31
0.0
  0
LINE
  8
0
 62
     0
 10
64.5322
 20
35.833
 30
0.0
 11
78.5315
 21
35.833
 31
0.0
  0
LINE
  8
0
 62
     0
 10
78.5315
 20
35.833
 30
0.0
 11
78.5315
 21
21.8336
 31
0.0
  0
LINE
  8
0
 62
     0
 10
78.5315
 20
21.8336
 30
0.0
 11
64.5322
 21
21.8336
 31
0.0
  0
LINE
  8
0
 62
     0
 10
64.5322
 20
21.8336
 30
0.0
 11
64.5322
 21
35.833
 31
0.0
  0
LINE
  8
0
 62
     0
 10
83.5822
 20
35.833
 30
0.0
 11
97.5815
 21
35.833
 31
0.0
  0
LINE
  8
0
 62
     0
 10
97.5815
 20
35.833
 30
0.0
 11
97.5815
 21
21.8336
 31
0.0
  0
LINE
  8
0
 62
     0
 10
97.5815
 20
21.8336
 30
0.0
 11
83.5822
 21
21.8336
 31
0.0
  0
LINE
  8
0
 62
     0
 10
83.5822
 20
21.8336
 30
0.0
 11
83.5822
 21
35.833
 31
0.0
  0
LINE
  8
0
 62
     0
 10
102.632
 20
35.833
 30
0.0
 11
116.632
 21
35.833
 31
0.0
  0
LINE
  8
0
 62
     0
 10
116.632
 20
35.833
 30
0.0
 11
116.632
 21
21.8336
 31
0.0
  0
LINE
  8
0
 62
     0
 10
116.632
 20
21.8336
 30
0.0
 11
102.632
 21
21.8336
 31
0.0
  0
LINE
  8
0
 62
     0
 10
102.632
 20
21.8336
 30
0.0
 11
102.632
 21
35.833
 31
0.0
  0
LINE
  8
0
 62
     0
 10
121.682
 20
35.833
 30
0.0
 11
135.682
 21
35.833
 31
0.0
  0
LINE
  8
0
 62
     0
 10
135.682
 20
35.833
 30
0.0
 11
135.682
 21
21.8336
 31
0.0
  0
LINE
  8
0
 62
     0
 10
135.682
 20
21.8336
 30
0.0
 11
121.682
 21
21.8336
 31
0.0
  0
LINE
  8
0
 62
     0
 10
121.682
 20
21.8336
 30
0.0
 11
121.682
 21
35.833
 31
0.0
  0
LINE
  8
0
 62
     0
 10
140.732
 20
35.833
 30
0.0
 11
154.732
 21
35.833
 31
0.0
  0
LINE
  8
0
 62
     0
 10
154.732
 20
35.833
 30
0.0
 11
154.732
 21
21.8336
 31
0.0
  0
LINE
  8
0
 62
     0
 10
154.732
 20
21.8336
 30
0.0
 11
140.732
 21
21.8336
 31
0.0
  0
LINE
  8
0
 62
     0
 10
140.732
 20
21.8336
 30
0.0
 11
140.732
 21
35.833
 31
0.0
  0
LINE
  8
0
 62
     0
 10
159.782
 20
35.833
 30
0.0
 11
173.782
 21
35.833
 31
0.0
  0
LINE
  8
0
 62
     0
 10
173.782
 20
35.833
 30
0.0
 11
173.782
 21
21.8336
 31
0.0
  0
LINE
  8
0
 62
     0
 10
173.782
 20
21.8336
 30
0.0
 11
159.782
 21
21.8336
 31
0.0
  0
LINE
  8
0
 62
     0
 10
159.782
 20
21.8336
 30
0.0
 11
159.782
 21
35.833
 31
0.0
  0
LINE
  8
0
 62
     0
 10
178.832
 20
35.833
 30
0.0
 11
192.832
 21
35.833
 31
0.0
  0
LINE
  8
0
 62
     0
 10
192.832
 20
35.833
 30
0.0
 11
192.832
 21
21.8336
 31
0.0
  0
LINE
  8
0
 62
     0
 10
192.832
 20
21.8336
 30
0.0
 11
178.832
 21
21.8336
 31
0.0
  0
LINE
  8
0
 62
     0
 10
178.832
 20
21.8336
 30
0.0
 11
178.832
 21
35.833
 31
0.0
  0
LINE
  8
0
 62
     0
 10
197.882
 20
35.833
 30
0.0
 11
211.882
 21
35.833
 31
0.0
  0
LINE
  8
0
 62
     0
 10
211.882
 20
35.833
 30
0.0
 11
211.882
 21
21.8336
 31
0.0
  0
LINE
  8
0
 62
     0
 10
211.882
 20
21.8336
 30
0.0
 11
197.882
 21
21.8336
 31
0.0
  0
LINE
  8
0
 62
     0
 10
197.882
 20
21.8336
 30
0.0
 11
197.882
 21
35.833
 31
0.0
  0
LINE
  8
0
 62
     0
 10
7.38216
 20
54.8831
 30
0.0
 11
21.3817
 21
54.8831
 31
0.0
  0
LINE
  8
0
 62
     0
 10
21.3817
 20
54.8831
 30
0.0
 11
21.3817
 21
40.8838
 31
0.0
  0
LINE
  8
0
 62
     0
 10
21.3817
 20
40.8838
 30
0.0
 11
7.38216
 21
40.8838
 31
0.0
  0
LINE
  8
0
 62
     0
 10
7.38216
 20
40.8838
 30
0.0
 11
7.38216
 21
54.8831
 31
0.0
  0
LINE
  8
0
 62
     0
 10
33.5759
 20
54.8831
 30
0.0
 11
47.5753
 21
54.8831
 31
0.0
  0
LINE
  8
0
 62
     0
 10
47.5753
 20
54.8831
 30
0.0
 11
47.5753
 21
40.8838
 31
0.0
  0
LINE
  8
0
 62
     0
 10
47.5753
 20
40.8838
 30
0.0
 11
33.5759
 21
40.8838
 31
0.0
  0
LINE
  8
0
 62
     0
 10
33.5759
 20
40.8838
 30
0.0
 11
33.5759
 21
54.8831
 31
0.0
  0
LINE
  8
0
 62
     0
 10
55.0072
 20
54.8831
 30
0.0
 11
69.0065
 21
54.8831
 31
0.0
  0
LINE
  8
0
 62
     0
 10
69.0065
 20
54.8831
 30
0.0
 11
69.0065
 21
40.8838
 31
0.0
  0
LINE
  8
0
 62
     0
 10
69.0065
 20
40.8838
 30
0.0
 11
55.0072
 21
40.8838
 31
0.0
  0
LINE
  8
0
 62
     0
 10
55.0072
 20
40.8838
 30
0.0
 11
55.0072
 21
54.8831
 31
0.0
  0
LINE
  8
0
 62
     0
 10
74.0572
 20
54.8831
 30
0.0
 11
88.0565
 21
54.8831
 31
0.0
  0
LINE
  8
0
 62
     0
 10
88.0565
 20
54.8831
 30
0.0
 11
88.0565
 21
40.8838
 31
0.0
  0
LINE
  8
0
 62
     0
 10
88.0565
 20
40.8838
 30
0.0
 11
74.0572
 21
40.8838
 31
0.0
  0
LINE
  8
0
 62
     0
 10
74.0572
 20
40.8838
 30
0.0
 11
74.0572
 21
54.8831
 31
0.0
  0
LINE
  8
0
 62
     0
 10
93.1072
 20
54.8831
 30
0.0
 11
107.107
 21
54.8831
 31
0.0
  0
LINE
  8
0
 62
     0
 10
107.107
 20
54.8831
 30
0.0
 11
107.107
 21
40.8838
 31
0.0
  0
LINE
  8
0
 62
     0
 10
107.107
 20
40.8838
 30
0.0
 11
93.1072
 21
40.8838
 31
0.0
  0
LINE
  8
0
 62
     0
 10
93.1072
 20
40.8838
 30
0.0
 11
93.1072
 21
54.8831
 31
0.0
  0
LINE
  8
0
 62
     0
 10
112.157
 20
54.8831
 30
0.0
 11
126.157
 21
54.8831
 31
0.0
  0
LINE
  8
0
 62
     0
 10
126.157
 20
54.8831
 30
0.0
 11
126.157
 21
40.8838
 31
0.0
  0
LINE
  8
0
 62
     0
 10
126.157
 20
40.8838
 30
0.0
 11
112.157
 21
40.8838
 31
0.0
  0
LINE
  8
0
 62
     0
 10
112.157
 20
40.8838
 30
0.0
 11
112.157
 21
54.8831
 31
0.0
  0
LINE
  8
0
 62
     0
 10
131.207
 20
54.8831
 30
0.0
 11
145.207
 21
54.8831
 31
0.0
  0
LINE
  8
0
 62
     0
 10
145.207
 20
54.8831
 30
0.0
 11
145.207
 21
40.8838
 31
0.0
  0
LINE
  8
0
 62
     0
 10
145.207
 20
40.8838
 30
0.0
 11
131.207
 21
40.8838
 31
0.0
  0
LINE
  8
0
 62
     0
 10
131.207
 20
40.8838
 30
0.0
 11
131.207
 21
54.8831
 31
0.0
  0
LINE
  8
0
 62
     0
 10
150.257
 20
54.8831
 30
0.0
 11
164.257
 21
54.8831
 31
0.0
  0
LINE
  8
0
 62
     0
 10
164.257
 20
54.8831
 30
0.0
 11
164.257
 21
40.8838
 31
0.0
  0
LINE
  8
0
 62
     0
 10
164.257
 20
40.8838
 30
0.0
 11
150.257
 21
40.8838
 31
0.0
  0
LINE
  8
0
 62
     0
 10
150.257
 20
40.8838
 30
0.0
 11
150.257
 21
54.8831
 31
0.0
  0
LINE
  8
0
 62
     0
 10
169.307
 20
54.8831
 30
0.0
 11
183.307
 21
54.8831
 31
0.0
  0
LINE
  8
0
 62
     0
 10
183.307
 20
54.8831
 30
0.0
 11
183.307
 21
40.8838
 31
0.0
  0
LINE
  8
0
 62
     0
 10
183.307
 20
40.8838
 30
0.0
 11
169.307
 21
40.8838
 31
0.0
  0
LINE
  8
0
 62
     0
 10
169.307
 20
40.8838
 30
0.0
 11
169.307
 21
54.8831
 31
0.0
  0
LINE
  8
0
 62
     0
 10
188.357
 20
54.8831
 30
0.0
 11
202.357
 21
54.8831
 31
0.0
  0
LINE
  8
0
 62
     0
 10
202.357
 20
54.8831
 30
0.0
 11
202.357
 21
40.8838
 31
0.0
  0
LINE
  8
0
 62
     0
 10
202.357
 20
40.8838
 30
0.0
 11
188.357
 21
40.8838
 31
0.0
  0
LINE
  8
0
 62
     0
 10
188.357
 20
40.8838
 30
0.0
 11
188.357
 21
54.8831
 31
0.0
  0
LINE
  8
0
 62
     0
 10
207.407
 20
54.8831
 30
0.0
 11
221.407
 21
54.8831
 31
0.0
  0
LINE
  8
0
 62
     0
 10
221.407
 20
54.8831
 30
0.0
 11
221.407
 21
40.8838
 31
0.0
  0
LINE
  8
0
 62
     0
 10
221.407
 20
40.8838
 30
0.0
 11
207.407
 21
40.8838
 31
0.0
  0
LINE
  8
0
 62
     0
 10
207.407
 20
40.8838
 30
0.0
 11
207.407
 21
54.8831
 31
0.0
  0
LINE
  8
0
 62
     0
 10
231.22
 20
54.8831
 30
0.0
 11
245.219
 21
54.8831
 31
0.0
  0
LINE
  8
0
 62
     0
 10
245.219
 20
54.8831
 30
0.0
 11
245.219
 21
40.8838
 31
0.0
  0
LINE
  8
0
 62
     0
 10
245.219
 20
40.8838
 30
0.0
 11
231.22
 21
40.8838
 31
0.0
  0
LINE
  8
0
 62
     0
 10
231.22
 20
40.8838
 30
0.0
 11
231.22
 21
54.8831
 31
0.0
  0
LINE
  8
0
 62
     0
 10
5.00091
 20
73.9331
 30
0.0
 11
19.0004
 21
73.9331
 31
0.0
  0
LINE
  8
0
 62
     0
 10
19.0004
 20
73.9331
 30
0.0
 11
19.0004
 21
59.9338
 31
0.0
  0
LINE
  8
0
 62
     0
 10
19.0004
 20
59.9338
 30
0.0
 11
5.00091
 21
59.9338
 31
0.0
  0
LINE
  8
0
 62
     0
 10
5.00091
 20
59.9338
 30
0.0
 11
5.00091
 21
73.9331
 31
0.0
  0
LINE
  8
0
 62
     0
 10
28.812
 20
73.9331
 30
0.0
 11
42.8128
 21
73.9331
 31
0.0
  0
LINE
  8
0
 62
     0
 10
42.8128
 20
73.9331
 30
0.0
 11
42.8128
 21
59.9338
 31
0.0
  0
LINE
  8
0
 62
     0
 10
42.8128
 20
59.9338
 30
0.0
 11
28.812
 21
59.9338
 31
0.0
  0
LINE
  8
0
 62
     0
 10
28.812
 20
59.9338
 30
0.0
 11
28.812
 21
73.9331
 31
0.0
  0
LINE
  8
0
 62
     0
 10
50.2447
 20
73.9331
 30
0.0
 11
64.244
 21
73.9331
 31
0.0
  0
LINE
  8
0
 62
     0
 10
64.244
 20
73.9331
 30
0.0
 11
64.244
 21
59.9338
 31
0.0
  0
LINE
  8
0
 62
     0
 10
64.244
 20
59.9338
 30
0.0
 11
50.2447
 21
59.9338
 31
0.0
  0
LINE
  8
0
 62
     0
 10
50.2447
 20
59.9338
 30
0.0
 11
50.2447
 21
73.9331
 31
0.0
  0
LINE
  8
0
 62
     0
 10
69.2947
 20
73.9331
 30
0.0
 11
83.294
 21
73.9331
 31
0.0
  0
LINE
  8
0
 62
     0
 10
83.294
 20
73.9331
 30
0.0
 11
83.294
 21
59.9338
 31
0.0
  0
LINE
  8
0
 62
     0
 10
83.294
 20
59.9338
 30
0.0
 11
69.2947
 21
59.9338
 31
0.0
  0
LINE
  8
0
 62
     0
 10
69.2947
 20
59.9338
 30
0.0
 11
69.2947
 21
73.9331
 31
0.0
  0
LINE
  8
0
 62
     0
 10
88.3447
 20
73.9331
 30
0.0
 11
102.344
 21
73.9331
 31
0.0
  0
LINE
  8
0
 62
     0
 10
102.344
 20
73.9331
 30
0.0
 11
102.344
 21
59.9338
 31
0.0
  0
LINE
  8
0
 62
     0
 10
102.344
 20
59.9338
 30
0.0
 11
88.3447
 21
59.9338
 31
0.0
  0
LINE
  8
0
 62
     0
 10
88.3447
 20
59.9338
 30
0.0
 11
88.3447
 21
73.9331
 31
0.0
  0
LINE
  8
0
 62
     0
 10
107.395
 20
73.9331
 30
0.0
 11
121.394
 21
73.9331
 31
0.0
  0
LINE
  8
0
 62
     0
 10
121.394
 20
73.9331
 30
0.0
 11
121.394
 21
59.9338
 31
0.0
  0
LINE
  8
0
 62
     0
 10
121.394
 20
59.9338
 30
0.0
 11
107.395
 21
59.9338
 31
0.0
  0
LINE
  8
0
 62
     0
 10
107.395
 20
59.9338
 30
0.0
 11
107.395
 21
73.9331
 31
0.0
  0
LINE
  8
0
 62
     0
 10
126.445
 20
73.9331
 30
0.0
 11
140.444
 21
73.9331
 31
0.0
  0
LINE
  8
0
 62
     0
 10
140.444
 20
73.9331
 30
0.0
 11
140.444
 21
59.9338
 31
0.0
  0
LINE
  8
0
 62
     0
 10
140.444
 20
59.9338
 30
0.0
 11
126.445
 21
59.9338
 31
0.0
  0
LINE
  8
0
 62
     0
 10
126.445
 20
59.9338
 30
0.0
 11
126.445
 21
73.9331
 31
0.0
  0
LINE
  8
0
 62
     0
 10
145.495
 20
73.9331
 30
0.0
 11
159.494
 21
73.9331
 31
0.0
  0
LINE
  8
0
 62
     0
 10
159.494
 20
73.9331
 30
0.0
 11
159.494
 21
59.9338
 31
0.0
  0
LINE
  8
0
 62
     0
 10
159.494
 20
59.9338
 30
0.0
 11
145.495
 21
59.9338
 31
0.0
  0
LINE
  8
0
 62
     0
 10
145.495
 20
59.9338
 30
0.0
 11
145.495
 21
73.9331
 31
0.0
  0
LINE
  8
0
 62
     0
 10
164.545
 20
73.9331
 30
0.0
 11
178.544
 21
73.9331
 31
0.0
  0
LINE
  8
0
 62
     0
 10
178.544
 20
73.9331
 30
0.0
 11
178.544
 21
59.9338
 31
0.0
  0
LINE
  8
0
 62
     0
 10
178.544
 20
59.9338
 30
0.0
 11
164.545
 21
59.9338
 31
0.0
  0
LINE
  8
0
 62
     0
 10
164.545
 20
59.9338
 30
0.0
 11
164.545
 21
73.9331
 31
0.0
  0
LINE
  8
0
 62
     0
 10
183.595
 20
73.9331
 30
0.0
 11
197.594
 21
73.9331
 31
0.0
  0
LINE
  8
0
 62
     0
 10
197.594
 20
73.9331
 30
0.0
 11
197.594
 21
59.9338
 31
0.0
  0
LINE
  8
0
 62
     0
 10
197.594
 20
59.9338
 30
0.0
 11
183.595
 21
59.9338
 31
0.0
  0
LINE
  8
0
 62
     0
 10
183.595
 20
59.9338
 30
0.0
 11
183.595
 21
73.9331
 31
0.0
  0
LINE
  8
0
 62
     0
 10
202.645
 20
73.9331
 30
0.0
 11
216.644
 21
73.9331
 31
0.0
  0
LINE
  8
0
 62
     0
 10
216.644
 20
73.9331
 30
0.0
 11
216.644
 21
59.9338
 31
0.0
  0
LINE
  8
0
 62
     0
 10
216.644
 20
59.9338
 30
0.0
 11
202.645
 21
59.9338
 31
0.0
  0
LINE
  8
0
 62
     0
 10
202.645
 20
59.9338
 30
0.0
 11
202.645
 21
73.9331
 31
0.0
  0
LINE
  8
0
 62
     0
 10
221.695
 20
73.9331
 30
0.0
 11
235.694
 21
73.9331
 31
0.0
  0
LINE
  8
0
 62
     0
 10
235.694
 20
73.9331
 30
0.0
 11
235.694
 21
59.9338
 31
0.0
  0
LINE
  8
0
 62
     0
 10
235.694
 20
59.9338
 30
0.0
 11
221.695
 21
59.9338
 31
0.0
  0
LINE
  8
0
 62
     0
 10
221.695
 20
59.9338
 30
0.0
 11
221.695
 21
73.9331
 31
0.0
  0
LINE
  8
0
 62
     0
 10
2.61965
 20
92.9831
 30
0.0
 11
16.6192
 21
92.9831
 31
0.0
  0
LINE
  8
0
 62
     0
 10
16.6192
 20
92.9831
 30
0.0
 11
16.6192
 21
78.9838
 31
0.0
  0
LINE
  8
0
 62
     0
 10
16.6192
 20
78.9838
 30
0.0
 11
2.61965
 21
78.9838
 31
0.0
  0
LINE
  8
0
 62
     0
 10
2.61965
 20
78.9838
 30
0.0
 11
2.61965
 21
92.9831
 31
0.0
  0
LINE
  8
0
 62
     0
 10
21.6697
 20
92.9831
 30
0.0
 11
35.669
 21
92.9831
 31
0.0
  0
LINE
  8
0
 62
     0
 10
35.669
 20
92.9831
 30
0.0
 11
35.669
 21
78.9838
 31
0.0
  0
LINE
  8
0
 62
     0
 10
35.669
 20
78.9838
 30
0.0
 11
21.6697
 21
78.9838
 31
0.0
  0
LINE
  8
0
 62
     0
 10
21.6697
 20
78.9838
 30
0.0
 11
21.6697
 21
92.9831
 31
0.0
  0
LINE
  8
0
 62
     0
 10
40.7197
 20
92.9831
 30
0.0
 11
54.719
 21
92.9831
 31
0.0
  0
LINE
  8
0
 62
     0
 10
54.719
 20
92.9831
 30
0.0
 11
54.719
 21
78.9838
 31
0.0
  0
LINE
  8
0
 62
     0
 10
54.719
 20
78.9838
 30
0.0
 11
40.7197
 21
78.9838
 31
0.0
  0
LINE
  8
0
 62
     0
 10
40.7197
 20
78.9838
 30
0.0
 11
40.7197
 21
92.9831
 31
0.0
  0
LINE
  8
0
 62
     0
 10
59.7697
 20
92.9831
 30
0.0
 11
73.769
 21
92.9831
 31
0.0
  0
LINE
  8
0
 62
     0
 10
73.769
 20
92.9831
 30
0.0
 11
73.769
 21
78.9838
 31
0.0
  0
LINE
  8
0
 62
     0
 10
73.769
 20
78.9838
 30
0.0
 11
59.7697
 21
78.9838
 31
0.0
  0
LINE
  8
0
 62
     0
 10
59.7697
 20
78.9838
 30
0.0
 11
59.7697
 21
92.9831
 31
0.0
  0
LINE
  8
0
 62
     0
 10
78.8197
 20
92.9831
 30
0.0
 11
92.819
 21
92.9831
 31
0.0
  0
LINE
  8
0
 62
     0
 10
92.819
 20
92.9831
 30
0.0
 11
92.819
 21
78.9838
 31
0.0
  0
LINE
  8
0
 62
     0
 10
92.819
 20
78.9838
 30
0.0
 11
78.8197
 21
78.9838
 31
0.0
  0
LINE
  8
0
 62
     0
 10
78.8197
 20
78.9838
 30
0.0
 11
78.8197
 21
92.9831
 31
0.0
  0
LINE
  8
0
 62
     0
 10
97.8683
 20
92.9831
 30
0.0
 11
111.869
 21
92.9831
 31
0.0
  0
LINE
  8
0
 62
     0
 10
111.869
 20
92.9831
 30
0.0
 11
111.869
 21
78.9838
 31
0.0
  0
LINE
  8
0
 62
     0
 10
111.869
 20
78.9838
 30
0.0
 11
97.8683
 21
78.9838
 31
0.0
  0
LINE
  8
0
 62
     0
 10
97.8683
 20
78.9838
 30
0.0
 11
97.8683
 21
92.9831
 31
0.0
  0
LINE
  8
0
 62
     0
 10
116.918
 20
92.9831
 30
0.0
 11
130.919
 21
92.9831
 31
0.0
  0
LINE
  8
0
 62
     0
 10
130.919
 20
92.9831
 30
0.0
 11
130.919
 21
78.9838
 31
0.0
  0
LINE
  8
0
 62
     0
 10
130.919
 20
78.9838
 30
0.0
 11
116.918
 21
78.9838
 31
0.0
  0
LINE
  8
0
 62
     0
 10
116.918
 20
78.9838
 30
0.0
 11
116.918
 21
92.9831
 31
0.0
  0
LINE
  8
0
 62
     0
 10
135.97
 20
92.9831
 30
0.0
 11
149.969
 21
92.9831
 31
0.0
  0
LINE
  8
0
 62
     0
 10
149.969
 20
92.9831
 30
0.0
 11
149.969
 21
78.9838
 31
0.0
  0
LINE
  8
0
 62
     0
 10
149.969
 20
78.9838
 30
0.0
 11
135.97
 21
78.9838
 31
0.0
  0
LINE
  8
0
 62
     0
 10
135.97
 20
78.9838
 30
0.0
 11
135.97
 21
92.9831
 31
0.0
  0
LINE
  8
0
 62
     0
 10
155.02
 20
92.9831
 30
0.0
 11
169.019
 21
92.9831
 31
0.0
  0
LINE
  8
0
 62
     0
 10
169.019
 20
92.9831
 30
0.0
 11
169.019
 21
78.9838
 31
0.0
  0
LINE
  8
0
 62
     0
 10
169.019
 20
78.9838
 30
0.0
 11
155.02
 21
78.9838
 31
0.0
  0
LINE
  8
0
 62
     0
 10
155.02
 20
78.9838
 30
0.0
 11
155.02
 21
92.9831
 31
0.0
  0
LINE
  8
0
 62
     0
 10
174.07
 20
92.9831
 30
0.0
 11
188.069
 21
92.9831
 31
0.0
  0
LINE
  8
0
 62
     0
 10
188.069
 20
92.9831
 30
0.0
 11
188.069
 21
78.9838
 31
0.0
  0
LINE
  8
0
 62
     0
 10
188.069
 20
78.9838
 30
0.0
 11
174.07
 21
78.9838
 31
0.0
  0
LINE
  8
0
 62
     0
 10
174.07
 20
78.9838
 30
0.0
 11
174.07
 21
92.9831
 31
0.0
  0
LINE
  8
0
 62
     0
 10
193.12
 20
92.9831
 30
0.0
 11
207.119
 21
92.9831
 31
0.0
  0
LINE
  8
0
 62
     0
 10
207.119
 20
92.9831
 30
0.0
 11
207.119
 21
78.9838
 31
0.0
  0
LINE
  8
0
 62
     0
 10
207.119
 20
78.9838
 30
0.0
 11
193.12
 21
78.9838
 31
0.0
  0
LINE
  8
0
 62
     0
 10
193.12
 20
78.9838
 30
0.0
 11
193.12
 21
92.9831
 31
0.0
  0
LINE
  8
0
 62
     0
 10
212.17
 20
92.9831
 30
0.0
 11
226.169
 21
92.9831
 31
0.0
  0
LINE
  8
0
 62
     0
 10
226.169
 20
92.9831
 30
0.0
 11
226.169
 21
78.9838
 31
0.0
  0
LINE
  8
0
 62
     0
 10
226.169
 20
78.9838
 30
0.0
 11
212.17
 21
78.9838
 31
0.0
  0
LINE
  8
0
 62
     0
 10
212.17
 20
78.9838
 30
0.0
 11
212.17
 21
92.9831
 31
0.0
  0
LINE
  8
0
 62
     0
 10
233.601
 20
92.9831
 30
0.0
 11
247.6
 21
92.9831
 31
0.0
  0
LINE
  8
0
 62
     0
 10
247.6
 20
92.9831
 30
0.0
 11
247.6
 21
78.9838
 31
0.0
  0
LINE
  8
0
 62
     0
 10
247.6
 20
78.9838
 30
0.0
 11
233.601
 21
78.9838
 31
0.0
  0
LINE
  8
0
 62
     0
 10
233.601
 20
78.9838
 30
0.0
 11
233.601
 21
92.9831
 31
0.0
  0
ENDSEC
  0
EOF
