<?xml version="1.0"?>
<!-- Generated by SVGo -->
<svg width="262.415mm" height="105.252mm"
     viewBox="0.000 0.000 262.415 105.252"
     xmlns="http://www.w3.org/2000/svg" 
     xmlns:xlink="http://www.w3.org/1999/xlink">
<polygon points="257.414,100.251 5.001,100.251 5.001,5.001 257.414,5.001" style="fill:none;stroke-width:0.050000mm;stroke:black"/>
<polygon points="7.526,83.726 7.526,97.726 21.526,97.726 21.526,83.726" style="fill:none;stroke-width:0.050000mm;stroke:black"/>
<polygon points="26.576,83.726 26.576,97.726 40.576,97.726 40.576,83.726" style="fill:none;stroke-width:0.050000mm;stroke:black"/>
<polygon points="45.626,83.726 45.626,97.726 59.626,97.726 59.626,83.726" style="fill:none;stroke-width:0.050000mm;stroke:black"/>
<polygon points="64.676,83.726 64.676,97.726 78.676,97.726 78.676,83.726" style="fill:none;stroke-width:0.050000mm;stroke:black"/>
<polygon points="83.726,83.726 83.726,97.726 97.726,97.726 97.726,83.726" style="fill:none;stroke-width:0.050000mm;stroke:black"/>
<polygon points="133.732,83.726 133.732,97.726 147.732,97.726 147.732,83.726" style="fill:none;stroke-width:0.050000mm;stroke:black"/>
<polygon points="183.738,83.726 183.738,97.726 197.738,97.726 197.738,83.726" style="fill:none;stroke-width:0.050000mm;stroke:black"/>
<polygon points="202.788,83.726 202.788,97.726 216.788,97.726 216.788,83.726" style="fill:none;stroke-width:0.050000mm;stroke:black"/>
<polygon points="221.838,83.726 221.838,97.726 235.838,97.726 235.838,83.726" style="fill:none;stroke-width:0.050000mm;stroke:black"/>
<polygon points="240.888,83.726 240.888,97.726 254.888,97.726 254.888,83.726" style="fill:none;stroke-width:0.050000mm;stroke:black"/>
<polygon points="17.051,64.676 17.051,69.376 15.526,69.376 15.526,66.146 13.801,66.146 13.801,65.225 10.501,65.225 10.501,66.146 8.776,66.146 8.776,69.376 7.950,69.376 7.950,72.176 8.776,72.176 8.776,78.446 10.501,78.446 10.501,79.426 13.801,79.426 13.801,78.446 15.526,78.446 15.526,73.976 17.051,73.976 17.051,78.676 31.051,78.676 31.051,73.976 32.576,73.976 32.576,78.446 34.301,78.446 34.301,79.426 37.601,79.426 37.601,78.446 39.326,78.446 39.326,72.176 40.151,72.176 40.151,69.376 39.326,69.376 39.326,66.146 37.601,66.146 37.601,65.225 34.301,65.225 34.301,66.146 32.576,66.146 32.576,69.376 31.051,69.376 31.051,64.676" style="fill:none;stroke-width:0.050000mm;stroke:black"/>
<polygon points="231.363,64.676 231.363,69.376 229.838,69.376 229.838,66.146 228.113,66.146 228.113,65.225 224.813,65.225 224.813,66.146 223.088,66.146 223.088,69.376 222.263,69.376 222.263,72.176 223.088,72.176 223.088,78.446 224.813,78.446 224.813,79.426 228.113,79.426 228.113,78.446 229.838,78.446 229.838,73.976 231.363,73.976 231.363,78.676 245.363,78.676 245.363,73.976 246.888,73.976 246.888,78.446 248.613,78.446 248.613,79.426 251.913,79.426 251.913,78.446 253.638,78.446 253.638,72.176 254.463,72.176 254.463,69.376 253.638,69.376 253.638,66.146 251.913,66.146 251.913,65.225 248.613,65.225 248.613,66.146 246.888,66.146 246.888,69.376 245.363,69.376 245.363,64.676" style="fill:none;stroke-width:0.050000mm;stroke:black"/>
<polygon points="48.007,64.676 48.007,78.676 62.007,78.676 62.007,64.676" style="fill:none;stroke-width:0.050000mm;stroke:black"/>
<polygon points="69.438,64.676 69.438,78.676 83.438,78.676 83.438,64.676" style="fill:none;stroke-width:0.050000mm;stroke:black"/>
<polygon points="88.488,64.676 88.488,78.676 102.488,78.676 102.488,64.676" style="fill:none;stroke-width:0.050000mm;stroke:black"/>
<polygon points="107.538,64.676 107.538,78.676 121.538,78.676 121.538,64.676" style="fill:none;stroke-width:0.050000mm;stroke:black"/>
<polygon points="126.588,64.676 126.588,78.676 140.588,78.676 140.588,64.676" style="fill:none;stroke-width:0.050000mm;stroke:black"/>
<polygon points="145.638,64.676 145.638,78.676 159.638,78.676 159.638,64.676" style="fill:none;stroke-width:0.050000mm;stroke:black"/>
<polygon points="164.688,64.676 164.688,78.676 178.688,78.676 178.688,64.676" style="fill:none;stroke-width:0.050000mm;stroke:black"/>
<polygon points="183.738,64.676 183.738,78.676 197.738,78.676 197.738,64.676" style="fill:none;stroke-width:0.050000mm;stroke:black"/>
<polygon points="202.788,64.676 202.788,78.676 216.788,78.676 216.788,64.676" style="fill:none;stroke-width:0.050000mm;stroke:black"/>
<polygon points="12.288,45.626 12.288,59.626 26.288,59.626 26.288,45.626" style="fill:none;stroke-width:0.050000mm;stroke:black"/>
<polygon points="38.482,45.626 38.482,59.626 52.482,59.626 52.482,45.626" style="fill:none;stroke-width:0.050000mm;stroke:black"/>
<polygon points="59.913,45.626 59.913,59.626 73.913,59.626 73.913,45.626" style="fill:none;stroke-width:0.050000mm;stroke:black"/>
<polygon points="78.963,45.626 78.963,59.626 92.963,59.626 92.963,45.626" style="fill:none;stroke-width:0.050000mm;stroke:black"/>
<polygon points="98.013,45.626 98.013,59.626 112.013,59.626 112.013,45.626" style="fill:none;stroke-width:0.050000mm;stroke:black"/>
<polygon points="117.063,45.626 117.063,59.626 131.063,59.626 131.063,45.626" style="fill:none;stroke-width:0.050000mm;stroke:black"/>
<polygon points="136.113,45.626 136.113,59.626 150.113,59.626 150.113,45.626" style="fill:none;stroke-width:0.050000mm;stroke:black"/>
<polygon points="155.163,45.626 155.163,59.626 169.163,59.626 169.163,45.626" style="fill:none;stroke-width:0.050000mm;stroke:black"/>
<polygon points="174.213,45.626 174.213,59.626 188.213,59.626 188.213,45.626" style="fill:none;stroke-width:0.050000mm;stroke:black"/>
<polygon points="193.263,45.626 193.263,59.626 207.263,59.626 207.263,45.626" style="fill:none;stroke-width:0.050000mm;stroke:black"/>
<polygon points="212.313,45.626 212.313,59.626 226.313,59.626 226.313,45.626" style="fill:none;stroke-width:0.050000mm;stroke:black"/>
<polygon points="236.126,45.626 236.126,59.626 250.126,59.626 250.126,45.626" style="fill:none;stroke-width:0.050000mm;stroke:black"/>
<polygon points="9.907,26.576 9.907,40.576 23.907,40.576 23.907,26.576" style="fill:none;stroke-width:0.050000mm;stroke:black"/>
<polygon points="33.719,26.576 33.719,40.576 47.719,40.576 47.719,26.576" style="fill:none;stroke-width:0.050000mm;stroke:black"/>
<polygon points="55.151,26.576 55.151,40.576 69.151,40.576 69.151,26.576" style="fill:none;stroke-width:0.050000mm;stroke:black"/>
<polygon points="74.201,26.576 74.201,40.576 88.201,40.576 88.201,26.576" style="fill:none;stroke-width:0.050000mm;stroke:black"/>
<polygon points="93.251,26.576 93.251,40.576 107.251,40.576 107.251,26.576" style="fill:none;stroke-width:0.050000mm;stroke:black"/>
<polygon points="112.301,26.576 112.301,40.576 126.301,40.576 126.301,26.576" style="fill:none;stroke-width:0.050000mm;stroke:black"/>
<polygon points="131.351,26.576 131.351,40.576 145.351,40.576 145.351,26.576" style="fill:none;stroke-width:0.050000mm;stroke:black"/>
<polygon points="150.401,26.576 150.401,40.576 164.401,40.576 164.401,26.576" style="fill:none;stroke-width:0.050000mm;stroke:black"/>
<polygon points="169.451,26.576 169.451,40.576 183.451,40.576 183.451,26.576" style="fill:none;stroke-width:0.050000mm;stroke:black"/>
<polygon points="188.501,26.576 188.501,40.576 202.501,40.576 202.501,26.576" style="fill:none;stroke-width:0.050000mm;stroke:black"/>
<polygon points="207.551,26.576 207.551,40.576 221.551,40.576 221.551,26.576" style="fill:none;stroke-width:0.050000mm;stroke:black"/>
<polygon points="226.601,26.576 226.601,40.576 240.601,40.576 240.601,26.576" style="fill:none;stroke-width:0.050000mm;stroke:black"/>
<polygon points="7.526,7.526 7.526,21.526 21.526,21.526 21.526,7.526" style="fill:none;stroke-width:0.050000mm;stroke:black"/>
<polygon points="26.576,7.526 26.576,21.526 40.576,21.526 40.576,7.526" style="fill:none;stroke-width:0.050000mm;stroke:black"/>
<polygon points="45.626,7.526 45.626,21.526 59.626,21.526 59.626,7.526" style="fill:none;stroke-width:0.050000mm;stroke:black"/>
<polygon points="64.676,7.526 64.676,21.526 78.676,21.526 78.676,7.526" style="fill:none;stroke-width:0.050000mm;stroke:black"/>
<polygon points="83.726,7.526 83.726,21.526 97.726,21.526 97.726,7.526" style="fill:none;stroke-width:0.050000mm;stroke:black"/>
<polygon points="102.775,7.526 102.775,21.526 116.775,21.526 116.775,7.526" style="fill:none;stroke-width:0.050000mm;stroke:black"/>
<polygon points="121.825,7.526 121.825,21.526 135.826,21.526 135.826,7.526" style="fill:none;stroke-width:0.050000mm;stroke:black"/>
<polygon points="140.876,7.526 140.876,21.526 154.876,21.526 154.876,7.526" style="fill:none;stroke-width:0.050000mm;stroke:black"/>
<polygon points="159.926,7.526 159.926,21.526 173.926,21.526 173.926,7.526" style="fill:none;stroke-width:0.050000mm;stroke:black"/>
<polygon points="178.976,7.526 178.976,21.526 192.976,21.526 192.976,7.526" style="fill:none;stroke-width:0.050000mm;stroke:black"/>
<polygon points="198.026,7.526 198.026,21.526 212.026,21.526 212.026,7.526" style="fill:none;stroke-width:0.050000mm;stroke:black"/>
<polygon points="217.076,7.526 217.076,21.526 231.076,21.526 231.076,7.526" style="fill:none;stroke-width:0.050000mm;stroke:black"/>
<polygon points="238.507,7.526 238.507,21.526 252.507,21.526 252.507,7.526" style="fill:none;stroke-width:0.050000mm;stroke:black"/>
</svg>
