  0
SECTION
  2
HEADER
  9
$ACADVER
  1
AC1009
  9
$FILLMODE
 70
 0
  9
$SPLFRAME
 70
 1
  9
$EXTMIN
 10
0
 20
0
 30
0.0
  9
$EXTMAX
 10
1058.33
 20
1058.33
 30
0.0
  0
ENDSEC
  0
SECTION
  2
TABLES
  0
TABLE
  2
LAYER
 70
1
  0
LAYER
  2
0
 70
     0
 62
     7
  6
CONTINUOUS
  0
ENDTAB
  0
ENDSEC
  0
SECTION
  2
ENTITIES
  0
LINE
  8
0
 62
     0
 10
0.0950846
 20
95.5075
 30
0.0
 11
323.945
 21
95.5075
 31
0.0
  0
LINE
  8
0
 62
     0
 10
323.945
 20
95.5075
 30
0.0
 11
323.945
 21
0.257693
 31
0.0
  0
LINE
  8
0
 62
     0
 10
323.945
 20
0.257693
 30
0.0
 11
0.0950846
 21
0.257693
 31
0.0
  0
LINE
  8
0
 62
     0
 10
0.0950846
 20
0.257693
 30
0.0
 11
0.0950846
 21
95.5075
 31
0.0
  0
LINE
  8
0
 62
     0
 10
109.776
 20
16.7831
 30
0.0
 11
109.776
 21
12.0826
 31
0.0
  0
LINE
  8
0
 62
     0
 10
109.776
 20
12.0826
 30
0.0
 11
108.251
 21
12.0826
 31
0.0
  0
LINE
  8
0
 62
     0
 10
108.251
 20
12.0826
 30
0.0
 11
108.251
 21
15.3128
 31
0.0
  0
LINE
  8
0
 62
     0
 10
108.251
 20
15.3128
 30
0.0
 11
106.525
 21
15.3128
 31
0.0
  0
LINE
  8
0
 62
     0
 10
106.525
 20
15.3128
 30
0.0
 11
106.525
 21
16.2347
 31
0.0
  0
LINE
  8
0
 62
     0
 10
106.525
 20
16.2347
 30
0.0
 11
103.226
 21
16.2347
 31
0.0
  0
LINE
  8
0
 62
     0
 10
103.226
 20
16.2347
 30
0.0
 11
103.226
 21
15.3128
 31
0.0
  0
LINE
  8
0
 62
     0
 10
103.226
 20
15.3128
 30
0.0
 11
101.501
 21
15.3128
 31
0.0
  0
LINE
  8
0
 62
     0
 10
101.501
 20
15.3128
 30
0.0
 11
101.501
 21
12.0826
 31
0.0
  0
LINE
  8
0
 62
     0
 10
101.501
 20
12.0826
 30
0.0
 11
100.675
 21
12.0826
 31
0.0
  0
LINE
  8
0
 62
     0
 10
100.675
 20
12.0826
 30
0.0
 11
100.675
 21
9.28384
 31
0.0
  0
LINE
  8
0
 62
     0
 10
100.675
 20
9.28384
 30
0.0
 11
101.501
 21
9.28384
 31
0.0
  0
LINE
  8
0
 62
     0
 10
101.501
 20
9.28384
 30
0.0
 11
101.501
 21
3.01377
 31
0.0
  0
LINE
  8
0
 62
     0
 10
101.501
 20
3.01377
 30
0.0
 11
103.226
 21
3.01377
 31
0.0
  0
LINE
  8
0
 62
     0
 10
103.226
 20
3.01377
 30
0.0
 11
103.226
 21
2.03261
 31
0.0
  0
LINE
  8
0
 62
     0
 10
103.226
 20
2.03261
 30
0.0
 11
106.525
 21
2.03261
 31
0.0
  0
LINE
  8
0
 62
     0
 10
106.525
 20
2.03261
 30
0.0
 11
106.525
 21
3.01377
 31
0.0
  0
LINE
  8
0
 62
     0
 10
106.525
 20
3.01377
 30
0.0
 11
108.251
 21
3.01377
 31
0.0
  0
LINE
  8
0
 62
     0
 10
108.251
 20
3.01377
 30
0.0
 11
108.251
 21
7.48411
 31
0.0
  0
LINE
  8
0
 62
     0
 10
108.251
 20
7.48411
 30
0.0
 11
109.776
 21
7.48411
 31
0.0
  0
LINE
  8
0
 62
     0
 10
109.776
 20
7.48411
 30
0.0
 11
109.776
 21
2.78364
 31
0.0
  0
LINE
  8
0
 62
     0
 10
109.776
 20
2.78364
 30
0.0
 11
123.775
 21
2.78364
 31
0.0
  0
LINE
  8
0
 62
     0
 10
123.775
 20
2.78364
 30
0.0
 11
123.775
 21
7.48411
 31
0.0
  0
LINE
  8
0
 62
     0
 10
123.775
 20
7.48411
 30
0.0
 11
125.3
 21
7.48411
 31
0.0
  0
LINE
  8
0
 62
     0
 10
125.3
 20
7.48411
 30
0.0
 11
125.3
 21
3.01377
 31
0.0
  0
LINE
  8
0
 62
     0
 10
125.3
 20
3.01377
 30
0.0
 11
127.025
 21
3.01377
 31
0.0
  0
LINE
  8
0
 62
     0
 10
127.025
 20
3.01377
 30
0.0
 11
127.025
 21
2.03261
 31
0.0
  0
LINE
  8
0
 62
     0
 10
127.025
 20
2.03261
 30
0.0
 11
130.325
 21
2.03261
 31
0.0
  0
LINE
  8
0
 62
     0
 10
130.325
 20
2.03261
 30
0.0
 11
130.325
 21
3.01377
 31
0.0
  0
LINE
  8
0
 62
     0
 10
130.325
 20
3.01377
 30
0.0
 11
132.05
 21
3.01377
 31
0.0
  0
LINE
  8
0
 62
     0
 10
132.05
 20
3.01377
 30
0.0
 11
132.05
 21
9.28384
 31
0.0
  0
LINE
  8
0
 62
     0
 10
132.05
 20
9.28384
 30
0.0
 11
132.876
 21
9.28384
 31
0.0
  0
LINE
  8
0
 62
     0
 10
132.876
 20
9.28384
 30
0.0
 11
132.876
 21
12.0826
 31
0.0
  0
LINE
  8
0
 62
     0
 10
132.876
 20
12.0826
 30
0.0
 11
132.05
 21
12.0826
 31
0.0
  0
LINE
  8
0
 62
     0
 10
132.05
 20
12.0826
 30
0.0
 11
132.05
 21
15.3128
 31
0.0
  0
LINE
  8
0
 62
     0
 10
132.05
 20
15.3128
 30
0.0
 11
130.325
 21
15.3128
 31
0.0
  0
LINE
  8
0
 62
     0
 10
130.325
 20
15.3128
 30
0.0
 11
130.325
 21
16.2347
 31
0.0
  0
LINE
  8
0
 62
     0
 10
130.325
 20
16.2347
 30
0.0
 11
127.025
 21
16.2347
 31
0.0
  0
LINE
  8
0
 62
     0
 10
127.025
 20
16.2347
 30
0.0
 11
127.025
 21
15.3128
 31
0.0
  0
LINE
  8
0
 62
     0
 10
127.025
 20
15.3128
 30
0.0
 11
125.3
 21
15.3128
 31
0.0
  0
LINE
  8
0
 62
     0
 10
125.3
 20
15.3128
 30
0.0
 11
125.3
 21
12.0826
 31
0.0
  0
LINE
  8
0
 62
     0
 10
125.3
 20
12.0826
 30
0.0
 11
123.775
 21
12.0826
 31
0.0
  0
LINE
  8
0
 62
     0
 10
123.775
 20
12.0826
 30
0.0
 11
123.775
 21
16.7831
 31
0.0
  0
LINE
  8
0
 62
     0
 10
123.775
 20
16.7831
 30
0.0
 11
109.776
 21
16.7831
 31
0.0
  0
LINE
  8
0
 62
     0
 10
150.257
 20
16.7831
 30
0.0
 11
150.257
 21
12.0826
 31
0.0
  0
LINE
  8
0
 62
     0
 10
150.257
 20
12.0826
 30
0.0
 11
148.732
 21
12.0826
 31
0.0
  0
LINE
  8
0
 62
     0
 10
148.732
 20
12.0826
 30
0.0
 11
148.732
 21
15.3128
 31
0.0
  0
LINE
  8
0
 62
     0
 10
148.732
 20
15.3128
 30
0.0
 11
147.006
 21
15.3128
 31
0.0
  0
LINE
  8
0
 62
     0
 10
147.006
 20
15.3128
 30
0.0
 11
147.006
 21
16.2347
 31
0.0
  0
LINE
  8
0
 62
     0
 10
147.006
 20
16.2347
 30
0.0
 11
143.706
 21
16.2347
 31
0.0
  0
LINE
  8
0
 62
     0
 10
143.706
 20
16.2347
 30
0.0
 11
143.706
 21
15.3128
 31
0.0
  0
LINE
  8
0
 62
     0
 10
143.706
 20
15.3128
 30
0.0
 11
141.982
 21
15.3128
 31
0.0
  0
LINE
  8
0
 62
     0
 10
141.982
 20
15.3128
 30
0.0
 11
141.982
 21
12.0826
 31
0.0
  0
LINE
  8
0
 62
     0
 10
141.982
 20
12.0826
 30
0.0
 11
141.157
 21
12.0826
 31
0.0
  0
LINE
  8
0
 62
     0
 10
141.157
 20
12.0826
 30
0.0
 11
141.157
 21
9.28384
 31
0.0
  0
LINE
  8
0
 62
     0
 10
141.157
 20
9.28384
 30
0.0
 11
141.982
 21
9.28384
 31
0.0
  0
LINE
  8
0
 62
     0
 10
141.982
 20
9.28384
 30
0.0
 11
141.982
 21
3.01377
 31
0.0
  0
LINE
  8
0
 62
     0
 10
141.982
 20
3.01377
 30
0.0
 11
143.706
 21
3.01377
 31
0.0
  0
LINE
  8
0
 62
     0
 10
143.706
 20
3.01377
 30
0.0
 11
143.706
 21
2.03261
 31
0.0
  0
LINE
  8
0
 62
     0
 10
143.706
 20
2.03261
 30
0.0
 11
147.006
 21
2.03261
 31
0.0
  0
LINE
  8
0
 62
     0
 10
147.006
 20
2.03261
 30
0.0
 11
147.006
 21
3.01377
 31
0.0
  0
LINE
  8
0
 62
     0
 10
147.006
 20
3.01377
 30
0.0
 11
148.732
 21
3.01377
 31
0.0
  0
LINE
  8
0
 62
     0
 10
148.732
 20
3.01377
 30
0.0
 11
148.732
 21
7.48411
 31
0.0
  0
LINE
  8
0
 62
     0
 10
148.732
 20
7.48411
 30
0.0
 11
150.257
 21
7.48411
 31
0.0
  0
LINE
  8
0
 62
     0
 10
150.257
 20
7.48411
 30
0.0
 11
150.257
 21
2.78364
 31
0.0
  0
LINE
  8
0
 62
     0
 10
150.257
 20
2.78364
 30
0.0
 11
164.257
 21
2.78364
 31
0.0
  0
LINE
  8
0
 62
     0
 10
164.257
 20
2.78364
 30
0.0
 11
164.257
 21
7.48411
 31
0.0
  0
LINE
  8
0
 62
     0
 10
164.257
 20
7.48411
 30
0.0
 11
165.782
 21
7.48411
 31
0.0
  0
LINE
  8
0
 62
     0
 10
165.782
 20
7.48411
 30
0.0
 11
165.782
 21
3.01377
 31
0.0
  0
LINE
  8
0
 62
     0
 10
165.782
 20
3.01377
 30
0.0
 11
167.506
 21
3.01377
 31
0.0
  0
LINE
  8
0
 62
     0
 10
167.506
 20
3.01377
 30
0.0
 11
167.506
 21
2.03261
 31
0.0
  0
LINE
  8
0
 62
     0
 10
167.506
 20
2.03261
 30
0.0
 11
170.807
 21
2.03261
 31
0.0
  0
LINE
  8
0
 62
     0
 10
170.807
 20
2.03261
 30
0.0
 11
170.807
 21
3.01377
 31
0.0
  0
LINE
  8
0
 62
     0
 10
170.807
 20
3.01377
 30
0.0
 11
172.532
 21
3.01377
 31
0.0
  0
LINE
  8
0
 62
     0
 10
172.532
 20
3.01377
 30
0.0
 11
172.532
 21
9.28384
 31
0.0
  0
LINE
  8
0
 62
     0
 10
172.532
 20
9.28384
 30
0.0
 11
173.356
 21
9.28384
 31
0.0
  0
LINE
  8
0
 62
     0
 10
173.356
 20
9.28384
 30
0.0
 11
173.356
 21
12.0826
 31
0.0
  0
LINE
  8
0
 62
     0
 10
173.356
 20
12.0826
 30
0.0
 11
172.532
 21
12.0826
 31
0.0
  0
LINE
  8
0
 62
     0
 10
172.532
 20
12.0826
 30
0.0
 11
172.532
 21
15.3128
 31
0.0
  0
LINE
  8
0
 62
     0
 10
172.532
 20
15.3128
 30
0.0
 11
170.807
 21
15.3128
 31
0.0
  0
LINE
  8
0
 62
     0
 10
170.807
 20
15.3128
 30
0.0
 11
170.807
 21
16.2347
 31
0.0
  0
LINE
  8
0
 62
     0
 10
170.807
 20
16.2347
 30
0.0
 11
167.506
 21
16.2347
 31
0.0
  0
LINE
  8
0
 62
     0
 10
167.506
 20
16.2347
 30
0.0
 11
167.506
 21
15.3128
 31
0.0
  0
LINE
  8
0
 62
     0
 10
167.506
 20
15.3128
 30
0.0
 11
165.782
 21
15.3128
 31
0.0
  0
LINE
  8
0
 62
     0
 10
165.782
 20
15.3128
 30
0.0
 11
165.782
 21
12.0826
 31
0.0
  0
LINE
  8
0
 62
     0
 10
165.782
 20
12.0826
 30
0.0
 11
164.257
 21
12.0826
 31
0.0
  0
LINE
  8
0
 62
     0
 10
164.257
 20
12.0826
 30
0.0
 11
164.257
 21
16.7831
 31
0.0
  0
LINE
  8
0
 62
     0
 10
164.257
 20
16.7831
 30
0.0
 11
150.257
 21
16.7831
 31
0.0
  0
LINE
  8
0
 62
     0
 10
2.61965
 20
16.7831
 30
0.0
 11
16.6192
 21
16.7831
 31
0.0
  0
LINE
  8
0
 62
     0
 10
16.6192
 20
16.7831
 30
0.0
 11
16.6192
 21
2.78364
 31
0.0
  0
LINE
  8
0
 62
     0
 10
16.6192
 20
2.78364
 30
0.0
 11
2.61965
 21
2.78364
 31
0.0
  0
LINE
  8
0
 62
     0
 10
2.61965
 20
2.78364
 30
0.0
 11
2.61965
 21
16.7831
 31
0.0
  0
LINE
  8
0
 62
     0
 10
21.6697
 20
16.7831
 30
0.0
 11
35.669
 21
16.7831
 31
0.0
  0
LINE
  8
0
 62
     0
 10
35.669
 20
16.7831
 30
0.0
 11
35.669
 21
2.78364
 31
0.0
  0
LINE
  8
0
 62
     0
 10
35.669
 20
2.78364
 30
0.0
 11
21.6697
 21
2.78364
 31
0.0
  0
LINE
  8
0
 62
     0
 10
21.6697
 20
2.78364
 30
0.0
 11
21.6697
 21
16.7831
 31
0.0
  0
LINE
  8
0
 62
     0
 10
40.7197
 20
16.7831
 30
0.0
 11
54.719
 21
16.7831
 31
0.0
  0
LINE
  8
0
 62
     0
 10
54.719
 20
16.7831
 30
0.0
 11
54.719
 21
2.78364
 31
0.0
  0
LINE
  8
0
 62
     0
 10
54.719
 20
2.78364
 30
0.0
 11
40.7197
 21
2.78364
 31
0.0
  0
LINE
  8
0
 62
     0
 10
40.7197
 20
2.78364
 30
0.0
 11
40.7197
 21
16.7831
 31
0.0
  0
LINE
  8
0
 62
     0
 10
59.7697
 20
16.7831
 30
0.0
 11
73.769
 21
16.7831
 31
0.0
  0
LINE
  8
0
 62
     0
 10
73.769
 20
16.7831
 30
0.0
 11
73.769
 21
2.78364
 31
0.0
  0
LINE
  8
0
 62
     0
 10
73.769
 20
2.78364
 30
0.0
 11
59.7697
 21
2.78364
 31
0.0
  0
LINE
  8
0
 62
     0
 10
59.7697
 20
2.78364
 30
0.0
 11
59.7697
 21
16.7831
 31
0.0
  0
LINE
  8
0
 62
     0
 10
78.8197
 20
16.7831
 30
0.0
 11
92.819
 21
16.7831
 31
0.0
  0
LINE
  8
0
 62
     0
 10
92.819
 20
16.7831
 30
0.0
 11
92.819
 21
2.78364
 31
0.0
  0
LINE
  8
0
 62
     0
 10
92.819
 20
2.78364
 30
0.0
 11
78.8197
 21
2.78364
 31
0.0
  0
LINE
  8
0
 62
     0
 10
78.8197
 20
2.78364
 30
0.0
 11
78.8197
 21
16.7831
 31
0.0
  0
LINE
  8
0
 62
     0
 10
178.832
 20
16.7831
 30
0.0
 11
192.832
 21
16.7831
 31
0.0
  0
LINE
  8
0
 62
     0
 10
192.832
 20
16.7831
 30
0.0
 11
192.832
 21
2.78364
 31
0.0
  0
LINE
  8
0
 62
     0
 10
192.832
 20
2.78364
 30
0.0
 11
178.832
 21
2.78364
 31
0.0
  0
LINE
  8
0
 62
     0
 10
178.832
 20
2.78364
 30
0.0
 11
178.832
 21
16.7831
 31
0.0
  0
LINE
  8
0
 62
     0
 10
197.882
 20
16.7831
 30
0.0
 11
211.882
 21
16.7831
 31
0.0
  0
LINE
  8
0
 62
     0
 10
211.882
 20
16.7831
 30
0.0
 11
211.882
 21
2.78364
 31
0.0
  0
LINE
  8
0
 62
     0
 10
211.882
 20
2.78364
 30
0.0
 11
197.882
 21
2.78364
 31
0.0
  0
LINE
  8
0
 62
     0
 10
197.882
 20
2.78364
 30
0.0
 11
197.882
 21
16.7831
 31
0.0
  0
LINE
  8
0
 62
     0
 10
216.932
 20
16.7831
 30
0.0
 11
230.932
 21
16.7831
 31
0.0
  0
LINE
  8
0
 62
     0
 10
230.932
 20
16.7831
 30
0.0
 11
230.932
 21
2.78364
 31
0.0
  0
LINE
  8
0
 62
     0
 10
230.932
 20
2.78364
 30
0.0
 11
216.932
 21
2.78364
 31
0.0
  0
LINE
  8
0
 62
     0
 10
216.932
 20
2.78364
 30
0.0
 11
216.932
 21
16.7831
 31
0.0
  0
LINE
  8
0
 62
     0
 10
238.362
 20
16.7831
 30
0.0
 11
252.361
 21
16.7831
 31
0.0
  0
LINE
  8
0
 62
     0
 10
252.361
 20
16.7831
 30
0.0
 11
252.361
 21
2.78364
 31
0.0
  0
LINE
  8
0
 62
     0
 10
252.361
 20
2.78364
 30
0.0
 11
238.362
 21
2.78364
 31
0.0
  0
LINE
  8
0
 62
     0
 10
238.362
 20
2.78364
 30
0.0
 11
238.362
 21
16.7831
 31
0.0
  0
LINE
  8
0
 62
     0
 10
269.32
 20
16.7831
 30
0.0
 11
283.319
 21
16.7831
 31
0.0
  0
LINE
  8
0
 62
     0
 10
283.319
 20
16.7831
 30
0.0
 11
283.319
 21
2.78364
 31
0.0
  0
LINE
  8
0
 62
     0
 10
283.319
 20
2.78364
 30
0.0
 11
269.32
 21
2.78364
 31
0.0
  0
LINE
  8
0
 62
     0
 10
269.32
 20
2.78364
 30
0.0
 11
269.32
 21
16.7831
 31
0.0
  0
LINE
  8
0
 62
     0
 10
288.37
 20
16.7831
 30
0.0
 11
302.369
 21
16.7831
 31
0.0
  0
LINE
  8
0
 62
     0
 10
302.369
 20
16.7831
 30
0.0
 11
302.369
 21
2.78364
 31
0.0
  0
LINE
  8
0
 62
     0
 10
302.369
 20
2.78364
 30
0.0
 11
288.37
 21
2.78364
 31
0.0
  0
LINE
  8
0
 62
     0
 10
288.37
 20
2.78364
 30
0.0
 11
288.37
 21
16.7831
 31
0.0
  0
LINE
  8
0
 62
     0
 10
307.42
 20
16.7831
 30
0.0
 11
321.419
 21
16.7831
 31
0.0
  0
LINE
  8
0
 62
     0
 10
321.419
 20
16.7831
 30
0.0
 11
321.419
 21
2.78364
 31
0.0
  0
LINE
  8
0
 62
     0
 10
321.419
 20
2.78364
 30
0.0
 11
307.42
 21
2.78364
 31
0.0
  0
LINE
  8
0
 62
     0
 10
307.42
 20
2.78364
 30
0.0
 11
307.42
 21
16.7831
 31
0.0
  0
LINE
  8
0
 62
     0
 10
12.1447
 20
35.833
 30
0.0
 11
12.1447
 21
31.1326
 31
0.0
  0
LINE
  8
0
 62
     0
 10
12.1447
 20
31.1326
 30
0.0
 11
10.6192
 21
31.1326
 31
0.0
  0
LINE
  8
0
 62
     0
 10
10.6192
 20
31.1326
 30
0.0
 11
10.6192
 21
34.3628
 31
0.0
  0
LINE
  8
0
 62
     0
 10
10.6192
 20
34.3628
 30
0.0
 11
8.89385
 21
34.3628
 31
0.0
  0
LINE
  8
0
 62
     0
 10
8.89385
 20
34.3628
 30
0.0
 11
8.89385
 21
35.2848
 31
0.0
  0
LINE
  8
0
 62
     0
 10
8.89385
 20
35.2848
 30
0.0
 11
5.59484
 21
35.2848
 31
0.0
  0
LINE
  8
0
 62
     0
 10
5.59484
 20
35.2848
 30
0.0
 11
5.59484
 21
34.3628
 31
0.0
  0
LINE
  8
0
 62
     0
 10
5.59484
 20
34.3628
 30
0.0
 11
3.86955
 21
34.3628
 31
0.0
  0
LINE
  8
0
 62
     0
 10
3.86955
 20
34.3628
 30
0.0
 11
3.86955
 21
31.1326
 31
0.0
  0
LINE
  8
0
 62
     0
 10
3.86955
 20
31.1326
 30
0.0
 11
3.04409
 21
31.1326
 31
0.0
  0
LINE
  8
0
 62
     0
 10
3.04409
 20
31.1326
 30
0.0
 11
3.04409
 21
28.3338
 31
0.0
  0
LINE
  8
0
 62
     0
 10
3.04409
 20
28.3338
 30
0.0
 11
3.86955
 21
28.3338
 31
0.0
  0
LINE
  8
0
 62
     0
 10
3.86955
 20
28.3338
 30
0.0
 11
3.86955
 21
22.0638
 31
0.0
  0
LINE
  8
0
 62
     0
 10
3.86955
 20
22.0638
 30
0.0
 11
5.59484
 21
22.0638
 31
0.0
  0
LINE
  8
0
 62
     0
 10
5.59484
 20
22.0638
 30
0.0
 11
5.59484
 21
21.0826
 31
0.0
  0
LINE
  8
0
 62
     0
 10
5.59484
 20
21.0826
 30
0.0
 11
8.89385
 21
21.0826
 31
0.0
  0
LINE
  8
0
 62
     0
 10
8.89385
 20
21.0826
 30
0.0
 11
8.89385
 21
22.0638
 31
0.0
  0
LINE
  8
0
 62
     0
 10
8.89385
 20
22.0638
 30
0.0
 11
10.6192
 21
22.0638
 31
0.0
  0
LINE
  8
0
 62
     0
 10
10.6192
 20
22.0638
 30
0.0
 11
10.6192
 21
26.5327
 31
0.0
  0
LINE
  8
0
 62
     0
 10
10.6192
 20
26.5327
 30
0.0
 11
12.1447
 21
26.5327
 31
0.0
  0
LINE
  8
0
 62
     0
 10
12.1447
 20
26.5327
 30
0.0
 11
12.1447
 21
21.8336
 31
0.0
  0
LINE
  8
0
 62
     0
 10
12.1447
 20
21.8336
 30
0.0
 11
26.1441
 21
21.8336
 31
0.0
  0
LINE
  8
0
 62
     0
 10
26.1441
 20
21.8336
 30
0.0
 11
26.1441
 21
26.5327
 31
0.0
  0
LINE
  8
0
 62
     0
 10
26.1441
 20
26.5327
 30
0.0
 11
27.6696
 21
26.5327
 31
0.0
  0
LINE
  8
0
 62
     0
 10
27.6696
 20
26.5327
 30
0.0
 11
27.6696
 21
22.0638
 31
0.0
  0
LINE
  8
0
 62
     0
 10
27.6696
 20
22.0638
 30
0.0
 11
29.3949
 21
22.0638
 31
0.0
  0
LINE
  8
0
 62
     0
 10
29.3949
 20
22.0638
 30
0.0
 11
29.3949
 21
21.0826
 31
0.0
  0
LINE
  8
0
 62
     0
 10
29.3949
 20
21.0826
 30
0.0
 11
32.694
 21
21.0826
 31
0.0
  0
LINE
  8
0
 62
     0
 10
32.694
 20
21.0826
 30
0.0
 11
32.694
 21
22.0638
 31
0.0
  0
LINE
  8
0
 62
     0
 10
32.694
 20
22.0638
 30
0.0
 11
34.4193
 21
22.0638
 31
0.0
  0
LINE
  8
0
 62
     0
 10
34.4193
 20
22.0638
 30
0.0
 11
34.4193
 21
28.3338
 31
0.0
  0
LINE
  8
0
 62
     0
 10
34.4193
 20
28.3338
 30
0.0
 11
35.2447
 21
28.3338
 31
0.0
  0
LINE
  8
0
 62
     0
 10
35.2447
 20
28.3338
 30
0.0
 11
35.2447
 21
31.1326
 31
0.0
  0
LINE
  8
0
 62
     0
 10
35.2447
 20
31.1326
 30
0.0
 11
34.4193
 21
31.1326
 31
0.0
  0
LINE
  8
0
 62
     0
 10
34.4193
 20
31.1326
 30
0.0
 11
34.4193
 21
34.3628
 31
0.0
  0
LINE
  8
0
 62
     0
 10
34.4193
 20
34.3628
 30
0.0
 11
32.694
 21
34.3628
 31
0.0
  0
LINE
  8
0
 62
     0
 10
32.694
 20
34.3628
 30
0.0
 11
32.694
 21
35.2848
 31
0.0
  0
LINE
  8
0
 62
     0
 10
32.694
 20
35.2848
 30
0.0
 11
29.3949
 21
35.2848
 31
0.0
  0
LINE
  8
0
 62
     0
 10
29.3949
 20
35.2848
 30
0.0
 11
29.3949
 21
34.3628
 31
0.0
  0
LINE
  8
0
 62
     0
 10
29.3949
 20
34.3628
 30
0.0
 11
27.6696
 21
34.3628
 31
0.0
  0
LINE
  8
0
 62
     0
 10
27.6696
 20
34.3628
 30
0.0
 11
27.6696
 21
31.1326
 31
0.0
  0
LINE
  8
0
 62
     0
 10
27.6696
 20
31.1326
 30
0.0
 11
26.1441
 21
31.1326
 31
0.0
  0
LINE
  8
0
 62
     0
 10
26.1441
 20
31.1326
 30
0.0
 11
26.1441
 21
35.833
 31
0.0
  0
LINE
  8
0
 62
     0
 10
26.1441
 20
35.833
 30
0.0
 11
12.1447
 21
35.833
 31
0.0
  0
LINE
  8
0
 62
     0
 10
228.837
 20
35.833
 30
0.0
 11
228.837
 21
31.1326
 31
0.0
  0
LINE
  8
0
 62
     0
 10
228.837
 20
31.1326
 30
0.0
 11
227.313
 21
31.1326
 31
0.0
  0
LINE
  8
0
 62
     0
 10
227.313
 20
31.1326
 30
0.0
 11
227.313
 21
34.3628
 31
0.0
  0
LINE
  8
0
 62
     0
 10
227.313
 20
34.3628
 30
0.0
 11
225.588
 21
34.3628
 31
0.0
  0
LINE
  8
0
 62
     0
 10
225.588
 20
34.3628
 30
0.0
 11
225.588
 21
35.2848
 31
0.0
  0
LINE
  8
0
 62
     0
 10
225.588
 20
35.2848
 30
0.0
 11
222.287
 21
35.2848
 31
0.0
  0
LINE
  8
0
 62
     0
 10
222.287
 20
35.2848
 30
0.0
 11
222.287
 21
34.3628
 31
0.0
  0
LINE
  8
0
 62
     0
 10
222.287
 20
34.3628
 30
0.0
 11
220.562
 21
34.3628
 31
0.0
  0
LINE
  8
0
 62
     0
 10
220.562
 20
34.3628
 30
0.0
 11
220.562
 21
31.1326
 31
0.0
  0
LINE
  8
0
 62
     0
 10
220.562
 20
31.1326
 30
0.0
 11
219.738
 21
31.1326
 31
0.0
  0
LINE
  8
0
 62
     0
 10
219.738
 20
31.1326
 30
0.0
 11
219.738
 21
28.3338
 31
0.0
  0
LINE
  8
0
 62
     0
 10
219.738
 20
28.3338
 30
0.0
 11
220.562
 21
28.3338
 31
0.0
  0
LINE
  8
0
 62
     0
 10
220.562
 20
28.3338
 30
0.0
 11
220.562
 21
22.0638
 31
0.0
  0
LINE
  8
0
 62
     0
 10
220.562
 20
22.0638
 30
0.0
 11
222.287
 21
22.0638
 31
0.0
  0
LINE
  8
0
 62
     0
 10
222.287
 20
22.0638
 30
0.0
 11
222.287
 21
21.0826
 31
0.0
  0
LINE
  8
0
 62
     0
 10
222.287
 20
21.0826
 30
0.0
 11
225.588
 21
21.0826
 31
0.0
  0
LINE
  8
0
 62
     0
 10
225.588
 20
21.0826
 30
0.0
 11
225.588
 21
22.0638
 31
0.0
  0
LINE
  8
0
 62
     0
 10
225.588
 20
22.0638
 30
0.0
 11
227.313
 21
22.0638
 31
0.0
  0
LINE
  8
0
 62
     0
 10
227.313
 20
22.0638
 30
0.0
 11
227.313
 21
26.5327
 31
0.0
  0
LINE
  8
0
 62
     0
 10
227.313
 20
26.5327
 30
0.0
 11
228.837
 21
26.5327
 31
0.0
  0
LINE
  8
0
 62
     0
 10
228.837
 20
26.5327
 30
0.0
 11
228.837
 21
21.8336
 31
0.0
  0
LINE
  8
0
 62
     0
 10
228.837
 20
21.8336
 30
0.0
 11
242.838
 21
21.8336
 31
0.0
  0
LINE
  8
0
 62
     0
 10
242.838
 20
21.8336
 30
0.0
 11
242.838
 21
26.5327
 31
0.0
  0
LINE
  8
0
 62
     0
 10
242.838
 20
26.5327
 30
0.0
 11
244.362
 21
26.5327
 31
0.0
  0
LINE
  8
0
 62
     0
 10
244.362
 20
26.5327
 30
0.0
 11
244.362
 21
22.0638
 31
0.0
  0
LINE
  8
0
 62
     0
 10
244.362
 20
22.0638
 30
0.0
 11
246.087
 21
22.0638
 31
0.0
  0
LINE
  8
0
 62
     0
 10
246.087
 20
22.0638
 30
0.0
 11
246.087
 21
21.0826
 31
0.0
  0
LINE
  8
0
 62
     0
 10
246.087
 20
21.0826
 30
0.0
 11
249.388
 21
21.0826
 31
0.0
  0
LINE
  8
0
 62
     0
 10
249.388
 20
21.0826
 30
0.0
 11
249.388
 21
22.0638
 31
0.0
  0
LINE
  8
0
 62
     0
 10
249.388
 20
22.0638
 30
0.0
 11
251.112
 21
22.0638
 31
0.0
  0
LINE
  8
0
 62
     0
 10
251.112
 20
22.0638
 30
0.0
 11
251.112
 21
28.3338
 31
0.0
  0
LINE
  8
0
 62
     0
 10
251.112
 20
28.3338
 30
0.0
 11
251.937
 21
28.3338
 31
0.0
  0
LINE
  8
0
 62
     0
 10
251.937
 20
28.3338
 30
0.0
 11
251.937
 21
31.1326
 31
0.0
  0
LINE
  8
0
 62
     0
 10
251.937
 20
31.1326
 30
0.0
 11
251.112
 21
31.1326
 31
0.0
  0
LINE
  8
0
 62
     0
 10
251.112
 20
31.1326
 30
0.0
 11
251.112
 21
34.3628
 31
0.0
  0
LINE
  8
0
 62
     0
 10
251.112
 20
34.3628
 30
0.0
 11
249.388
 21
34.3628
 31
0.0
  0
LINE
  8
0
 62
     0
 10
249.388
 20
34.3628
 30
0.0
 11
249.388
 21
35.2848
 31
0.0
  0
LINE
  8
0
 62
     0
 10
249.388
 20
35.2848
 30
0.0
 11
246.087
 21
35.2848
 31
0.0
  0
LINE
  8
0
 62
     0
 10
246.087
 20
35.2848
 30
0.0
 11
246.087
 21
34.3628
 31
0.0
  0
LINE
  8
0
 62
     0
 10
246.087
 20
34.3628
 30
0.0
 11
244.362
 21
34.3628
 31
0.0
  0
LINE
  8
0
 62
     0
 10
244.362
 20
34.3628
 30
0.0
 11
244.362
 21
31.1326
 31
0.0
  0
LINE
  8
0
 62
     0
 10
244.362
 20
31.1326
 30
0.0
 11
242.838
 21
31.1326
 31
0.0
  0
LINE
  8
0
 62
     0
 10
242.838
 20
31.1326
 30
0.0
 11
242.838
 21
35.833
 31
0.0
  0
LINE
  8
0
 62
     0
 10
242.838
 20
35.833
 30
0.0
 11
228.837
 21
35.833
 31
0.0
  0
LINE
  8
0
 62
     0
 10
43.101
 20
35.833
 30
0.0
 11
57.1003
 21
35.833
 31
0.0
  0
LINE
  8
0
 62
     0
 10
57.1003
 20
35.833
 30
0.0
 11
57.1003
 21
21.8336
 31
0.0
  0
LINE
  8
0
 62
     0
 10
57.1003
 20
21.8336
 30
0.0
 11
43.101
 21
21.8336
 31
0.0
  0
LINE
  8
0
 62
     0
 10
43.101
 20
21.8336
 30
0.0
 11
43.101
 21
35.833
 31
0.0
  0
LINE
  8
0
 62
     0
 10
64.5322
 20
35.833
 30
0.0
 11
78.5315
 21
35.833
 31
0.0
  0
LINE
  8
0
 62
     0
 10
78.5315
 20
35.833
 30
0.0
 11
78.5315
 21
21.8336
 31
0.0
  0
LINE
  8
0
 62
     0
 10
78.5315
 20
21.8336
 30
0.0
 11
64.5322
 21
21.8336
 31
0.0
  0
LINE
  8
0
 62
     0
 10
64.5322
 20
21.8336
 30
0.0
 11
64.5322
 21
35.833
 31
0.0
  0
LINE
  8
0
 62
     0
 10
83.5822
 20
35.833
 30
0.0
 11
97.5815
 21
35.833
 31
0.0
  0
LINE
  8
0
 62
     0
 10
97.5815
 20
35.833
 30
0.0
 11
97.5815
 21
21.8336
 31
0.0
  0
LINE
  8
0
 62
     0
 10
97.5815
 20
21.8336
 30
0.0
 11
83.5822
 21
21.8336
 31
0.0
  0
LINE
  8
0
 62
     0
 10
83.5822
 20
21.8336
 30
0.0
 11
83.5822
 21
35.833
 31
0.0
  0
LINE
  8
0
 62
     0
 10
102.632
 20
35.833
 30
0.0
 11
116.632
 21
35.833
 31
0.0
  0
LINE
  8
0
 62
     0
 10
116.632
 20
35.833
 30
0.0
 11
116.632
 21
21.8336
 31
0.0
  0
LINE
  8
0
 62
     0
 10
116.632
 20
21.8336
 30
0.0
 11
102.632
 21
21.8336
 31
0.0
  0
LINE
  8
0
 62
     0
 10
102.632
 20
21.8336
 30
0.0
 11
102.632
 21
35.833
 31
0.0
  0
LINE
  8
0
 62
     0
 10
121.682
 20
35.833
 30
0.0
 11
135.682
 21
35.833
 31
0.0
  0
LINE
  8
0
 62
     0
 10
135.682
 20
35.833
 30
0.0
 11
135.682
 21
21.8336
 31
0.0
  0
LINE
  8
0
 62
     0
 10
135.682
 20
21.8336
 30
0.0
 11
121.682
 21
21.8336
 31
0.0
  0
LINE
  8
0
 62
     0
 10
121.682
 20
21.8336
 30
0.0
 11
121.682
 21
35.833
 31
0.0
  0
LINE
  8
0
 62
     0
 10
140.732
 20
35.833
 30
0.0
 11
154.732
 21
35.833
 31
0.0
  0
LINE
  8
0
 62
     0
 10
154.732
 20
35.833
 30
0.0
 11
154.732
 21
21.8336
 31
0.0
  0
LINE
  8
0
 62
     0
 10
154.732
 20
21.8336
 30
0.0
 11
140.732
 21
21.8336
 31
0.0
  0
LINE
  8
0
 62
     0
 10
140.732
 20
21.8336
 30
0.0
 11
140.732
 21
35.833
 31
0.0
  0
LINE
  8
0
 62
     0
 10
159.782
 20
35.833
 30
0.0
 11
173.782
 21
35.833
 31
0.0
  0
LINE
  8
0
 62
     0
 10
173.782
 20
35.833
 30
0.0
 11
173.782
 21
21.8336
 31
0.0
  0
LINE
  8
0
 62
     0
 10
173.782
 20
21.8336
 30
0.0
 11
159.782
 21
21.8336
 31
0.0
  0
LINE
  8
0
 62
     0
 10
159.782
 20
21.8336
 30
0.0
 11
159.782
 21
35.833
 31
0.0
  0
LINE
  8
0
 62
     0
 10
178.832
 20
35.833
 30
0.0
 11
192.832
 21
35.833
 31
0.0
  0
LINE
  8
0
 62
     0
 10
192.832
 20
35.833
 30
0.0
 11
192.832
 21
21.8336
 31
0.0
  0
LINE
  8
0
 62
     0
 10
192.832
 20
21.8336
 30
0.0
 11
178.832
 21
21.8336
 31
0.0
  0
LINE
  8
0
 62
     0
 10
178.832
 20
21.8336
 30
0.0
 11
178.832
 21
35.833
 31
0.0
  0
LINE
  8
0
 62
     0
 10
197.882
 20
35.833
 30
0.0
 11
211.882
 21
35.833
 31
0.0
  0
LINE
  8
0
 62
     0
 10
211.882
 20
35.833
 30
0.0
 11
211.882
 21
21.8336
 31
0.0
  0
LINE
  8
0
 62
     0
 10
211.882
 20
21.8336
 30
0.0
 11
197.882
 21
21.8336
 31
0.0
  0
LINE
  8
0
 62
     0
 10
197.882
 20
21.8336
 30
0.0
 11
197.882
 21
35.833
 31
0.0
  0
LINE
  8
0
 62
     0
 10
269.32
 20
35.833
 30
0.0
 11
283.319
 21
35.833
 31
0.0
  0
LINE
  8
0
 62
     0
 10
283.319
 20
35.833
 30
0.0
 11
283.319
 21
21.8336
 31
0.0
  0
LINE
  8
0
 62
     0
 10
283.319
 20
21.8336
 30
0.0
 11
269.32
 21
21.8336
 31
0.0
  0
LINE
  8
0
 62
     0
 10
269.32
 20
21.8336
 30
0.0
 11
269.32
 21
35.833
 31
0.0
  0
LINE
  8
0
 62
     0
 10
288.37
 20
35.833
 30
0.0
 11
302.369
 21
35.833
 31
0.0
  0
LINE
  8
0
 62
     0
 10
302.369
 20
35.833
 30
0.0
 11
302.369
 21
21.8336
 31
0.0
  0
LINE
  8
0
 62
     0
 10
302.369
 20
21.8336
 30
0.0
 11
288.37
 21
21.8336
 31
0.0
  0
LINE
  8
0
 62
     0
 10
288.37
 20
21.8336
 30
0.0
 11
288.37
 21
35.833
 31
0.0
  0
LINE
  8
0
 62
     0
 10
307.42
 20
35.833
 30
0.0
 11
321.419
 21
35.833
 31
0.0
  0
LINE
  8
0
 62
     0
 10
321.419
 20
35.833
 30
0.0
 11
321.419
 21
21.8336
 31
0.0
  0
LINE
  8
0
 62
     0
 10
321.419
 20
21.8336
 30
0.0
 11
307.42
 21
21.8336
 31
0.0
  0
LINE
  8
0
 62
     0
 10
307.42
 20
21.8336
 30
0.0
 11
307.42
 21
35.833
 31
0.0
  0
LINE
  8
0
 62
     0
 10
7.38216
 20
54.8831
 30
0.0
 11
21.3817
 21
54.8831
 31
0.0
  0
LINE
  8
0
 62
     0
 10
21.3817
 20
54.8831
 30
0.0
 11
21.3817
 21
40.8838
 31
0.0
  0
LINE
  8
0
 62
     0
 10
21.3817
 20
40.8838
 30
0.0
 11
7.38216
 21
40.8838
 31
0.0
  0
LINE
  8
0
 62
     0
 10
7.38216
 20
40.8838
 30
0.0
 11
7.38216
 21
54.8831
 31
0.0
  0
LINE
  8
0
 62
     0
 10
33.5759
 20
54.8831
 30
0.0
 11
47.5753
 21
54.8831
 31
0.0
  0
LINE
  8
0
 62
     0
 10
47.5753
 20
54.8831
 30
0.0
 11
47.5753
 21
40.8838
 31
0.0
  0
LINE
  8
0
 62
     0
 10
47.5753
 20
40.8838
 30
0.0
 11
33.5759
 21
40.8838
 31
0.0
  0
LINE
  8
0
 62
     0
 10
33.5759
 20
40.8838
 30
0.0
 11
33.5759
 21
54.8831
 31
0.0
  0
LINE
  8
0
 62
     0
 10
55.0072
 20
54.8831
 30
0.0
 11
69.0065
 21
54.8831
 31
0.0
  0
LINE
  8
0
 62
     0
 10
69.0065
 20
54.8831
 30
0.0
 11
69.0065
 21
40.8838
 31
0.0
  0
LINE
  8
0
 62
     0
 10
69.0065
 20
40.8838
 30
0.0
 11
55.0072
 21
40.8838
 31
0.0
  0
LINE
  8
0
 62
     0
 10
55.0072
 20
40.8838
 30
0.0
 11
55.0072
 21
54.8831
 31
0.0
  0
LINE
  8
0
 62
     0
 10
74.0572
 20
54.8831
 30
0.0
 11
88.0565
 21
54.8831
 31
0.0
  0
LINE
  8
0
 62
     0
 10
88.0565
 20
54.8831
 30
0.0
 11
88.0565
 21
40.8838
 31
0.0
  0
LINE
  8
0
 62
     0
 10
88.0565
 20
40.8838
 30
0.0
 11
74.0572
 21
40.8838
 31
0.0
  0
LINE
  8
0
 62
     0
 10
74.0572
 20
40.8838
 30
0.0
 11
74.0572
 21
54.8831
 31
0.0
  0
LINE
  8
0
 62
     0
 10
93.1072
 20
54.8831
 30
0.0
 11
107.107
 21
54.8831
 31
0.0
  0
LINE
  8
0
 62
     0
 10
107.107
 20
54.8831
 30
0.0
 11
107.107
 21
40.8838
 31
0.0
  0
LINE
  8
0
 62
     0
 10
107.107
 20
40.8838
 30
0.0
 11
93.1072
 21
40.8838
 31
0.0
  0
LINE
  8
0
 62
     0
 10
93.1072
 20
40.8838
 30
0.0
 11
93.1072
 21
54.8831
 31
0.0
  0
LINE
  8
0
 62
     0
 10
112.157
 20
54.8831
 30
0.0
 11
126.157
 21
54.8831
 31
0.0
  0
LINE
  8
0
 62
     0
 10
126.157
 20
54.8831
 30
0.0
 11
126.157
 21
40.8838
 31
0.0
  0
LINE
  8
0
 62
     0
 10
126.157
 20
40.8838
 30
0.0
 11
112.157
 21
40.8838
 31
0.0
  0
LINE
  8
0
 62
     0
 10
112.157
 20
40.8838
 30
0.0
 11
112.157
 21
54.8831
 31
0.0
  0
LINE
  8
0
 62
     0
 10
131.207
 20
54.8831
 30
0.0
 11
145.207
 21
54.8831
 31
0.0
  0
LINE
  8
0
 62
     0
 10
145.207
 20
54.8831
 30
0.0
 11
145.207
 21
40.8838
 31
0.0
  0
LINE
  8
0
 62
     0
 10
145.207
 20
40.8838
 30
0.0
 11
131.207
 21
40.8838
 31
0.0
  0
LINE
  8
0
 62
     0
 10
131.207
 20
40.8838
 30
0.0
 11
131.207
 21
54.8831
 31
0.0
  0
LINE
  8
0
 62
     0
 10
150.257
 20
54.8831
 30
0.0
 11
164.257
 21
54.8831
 31
0.0
  0
LINE
  8
0
 62
     0
 10
164.257
 20
54.8831
 30
0.0
 11
164.257
 21
40.8838
 31
0.0
  0
LINE
  8
0
 62
     0
 10
164.257
 20
40.8838
 30
0.0
 11
150.257
 21
40.8838
 31
0.0
  0
LINE
  8
0
 62
     0
 10
150.257
 20
40.8838
 30
0.0
 11
150.257
 21
54.8831
 31
0.0
  0
LINE
  8
0
 62
     0
 10
169.307
 20
54.8831
 30
0.0
 11
183.307
 21
54.8831
 31
0.0
  0
LINE
  8
0
 62
     0
 10
183.307
 20
54.8831
 30
0.0
 11
183.307
 21
40.8838
 31
0.0
  0
LINE
  8
0
 62
     0
 10
183.307
 20
40.8838
 30
0.0
 11
169.307
 21
40.8838
 31
0.0
  0
LINE
  8
0
 62
     0
 10
169.307
 20
40.8838
 30
0.0
 11
169.307
 21
54.8831
 31
0.0
  0
LINE
  8
0
 62
     0
 10
188.357
 20
54.8831
 30
0.0
 11
202.357
 21
54.8831
 31
0.0
  0
LINE
  8
0
 62
     0
 10
202.357
 20
54.8831
 30
0.0
 11
202.357
 21
40.8838
 31
0.0
  0
LINE
  8
0
 62
     0
 10
202.357
 20
40.8838
 30
0.0
 11
188.357
 21
40.8838
 31
0.0
  0
LINE
  8
0
 62
     0
 10
188.357
 20
40.8838
 30
0.0
 11
188.357
 21
54.8831
 31
0.0
  0
LINE
  8
0
 62
     0
 10
207.407
 20
54.8831
 30
0.0
 11
221.407
 21
54.8831
 31
0.0
  0
LINE
  8
0
 62
     0
 10
221.407
 20
54.8831
 30
0.0
 11
221.407
 21
40.8838
 31
0.0
  0
LINE
  8
0
 62
     0
 10
221.407
 20
40.8838
 30
0.0
 11
207.407
 21
40.8838
 31
0.0
  0
LINE
  8
0
 62
     0
 10
207.407
 20
40.8838
 30
0.0
 11
207.407
 21
54.8831
 31
0.0
  0
LINE
  8
0
 62
     0
 10
233.601
 20
54.8831
 30
0.0
 11
247.6
 21
54.8831
 31
0.0
  0
LINE
  8
0
 62
     0
 10
247.6
 20
54.8831
 30
0.0
 11
247.6
 21
40.8838
 31
0.0
  0
LINE
  8
0
 62
     0
 10
247.6
 20
40.8838
 30
0.0
 11
233.601
 21
40.8838
 31
0.0
  0
LINE
  8
0
 62
     0
 10
233.601
 20
40.8838
 30
0.0
 11
233.601
 21
54.8831
 31
0.0
  0
LINE
  8
0
 62
     0
 10
269.32
 20
54.8831
 30
0.0
 11
283.319
 21
54.8831
 31
0.0
  0
LINE
  8
0
 62
     0
 10
283.319
 20
54.8831
 30
0.0
 11
283.319
 21
40.8838
 31
0.0
  0
LINE
  8
0
 62
     0
 10
283.319
 20
40.8838
 30
0.0
 11
269.32
 21
40.8838
 31
0.0
  0
LINE
  8
0
 62
     0
 10
269.32
 20
40.8838
 30
0.0
 11
269.32
 21
54.8831
 31
0.0
  0
LINE
  8
0
 62
     0
 10
288.37
 20
54.8831
 30
0.0
 11
302.369
 21
54.8831
 31
0.0
  0
LINE
  8
0
 62
     0
 10
302.369
 20
54.8831
 30
0.0
 11
302.369
 21
40.8838
 31
0.0
  0
LINE
  8
0
 62
     0
 10
302.369
 20
40.8838
 30
0.0
 11
288.37
 21
40.8838
 31
0.0
  0
LINE
  8
0
 62
     0
 10
288.37
 20
40.8838
 30
0.0
 11
288.37
 21
54.8831
 31
0.0
  0
LINE
  8
0
 62
     0
 10
307.42
 20
54.8831
 30
0.0
 11
321.419
 21
54.8831
 31
0.0
  0
LINE
  8
0
 62
     0
 10
321.419
 20
54.8831
 30
0.0
 11
321.419
 21
40.8838
 31
0.0
  0
LINE
  8
0
 62
     0
 10
321.419
 20
40.8838
 30
0.0
 11
307.42
 21
40.8838
 31
0.0
  0
LINE
  8
0
 62
     0
 10
307.42
 20
40.8838
 30
0.0
 11
307.42
 21
54.8831
 31
0.0
  0
LINE
  8
0
 62
     0
 10
5.00091
 20
73.9331
 30
0.0
 11
19.0004
 21
73.9331
 31
0.0
  0
LINE
  8
0
 62
     0
 10
19.0004
 20
73.9331
 30
0.0
 11
19.0004
 21
59.9338
 31
0.0
  0
LINE
  8
0
 62
     0
 10
19.0004
 20
59.9338
 30
0.0
 11
5.00091
 21
59.9338
 31
0.0
  0
LINE
  8
0
 62
     0
 10
5.00091
 20
59.9338
 30
0.0
 11
5.00091
 21
73.9331
 31
0.0
  0
LINE
  8
0
 62
     0
 10
28.812
 20
73.9331
 30
0.0
 11
42.8128
 21
73.9331
 31
0.0
  0
LINE
  8
0
 62
     0
 10
42.8128
 20
73.9331
 30
0.0
 11
42.8128
 21
59.9338
 31
0.0
  0
LINE
  8
0
 62
     0
 10
42.8128
 20
59.9338
 30
0.0
 11
28.812
 21
59.9338
 31
0.0
  0
LINE
  8
0
 62
     0
 10
28.812
 20
59.9338
 30
0.0
 11
28.812
 21
73.9331
 31
0.0
  0
LINE
  8
0
 62
     0
 10
50.2447
 20
73.9331
 30
0.0
 11
64.244
 21
73.9331
 31
0.0
  0
LINE
  8
0
 62
     0
 10
64.244
 20
73.9331
 30
0.0
 11
64.244
 21
59.9338
 31
0.0
  0
LINE
  8
0
 62
     0
 10
64.244
 20
59.9338
 30
0.0
 11
50.2447
 21
59.9338
 31
0.0
  0
LINE
  8
0
 62
     0
 10
50.2447
 20
59.9338
 30
0.0
 11
50.2447
 21
73.9331
 31
0.0
  0
LINE
  8
0
 62
     0
 10
69.2947
 20
73.9331
 30
0.0
 11
83.294
 21
73.9331
 31
0.0
  0
LINE
  8
0
 62
     0
 10
83.294
 20
73.9331
 30
0.0
 11
83.294
 21
59.9338
 31
0.0
  0
LINE
  8
0
 62
     0
 10
83.294
 20
59.9338
 30
0.0
 11
69.2947
 21
59.9338
 31
0.0
  0
LINE
  8
0
 62
     0
 10
69.2947
 20
59.9338
 30
0.0
 11
69.2947
 21
73.9331
 31
0.0
  0
LINE
  8
0
 62
     0
 10
88.3447
 20
73.9331
 30
0.0
 11
102.344
 21
73.9331
 31
0.0
  0
LINE
  8
0
 62
     0
 10
102.344
 20
73.9331
 30
0.0
 11
102.344
 21
59.9338
 31
0.0
  0
LINE
  8
0
 62
     0
 10
102.344
 20
59.9338
 30
0.0
 11
88.3447
 21
59.9338
 31
0.0
  0
LINE
  8
0
 62
     0
 10
88.3447
 20
59.9338
 30
0.0
 11
88.3447
 21
73.9331
 31
0.0
  0
LINE
  8
0
 62
     0
 10
107.395
 20
73.9331
 30
0.0
 11
121.394
 21
73.9331
 31
0.0
  0
LINE
  8
0
 62
     0
 10
121.394
 20
73.9331
 30
0.0
 11
121.394
 21
59.9338
 31
0.0
  0
LINE
  8
0
 62
     0
 10
121.394
 20
59.9338
 30
0.0
 11
107.395
 21
59.9338
 31
0.0
  0
LINE
  8
0
 62
     0
 10
107.395
 20
59.9338
 30
0.0
 11
107.395
 21
73.9331
 31
0.0
  0
LINE
  8
0
 62
     0
 10
126.445
 20
73.9331
 30
0.0
 11
140.444
 21
73.9331
 31
0.0
  0
LINE
  8
0
 62
     0
 10
140.444
 20
73.9331
 30
0.0
 11
140.444
 21
59.9338
 31
0.0
  0
LINE
  8
0
 62
     0
 10
140.444
 20
59.9338
 30
0.0
 11
126.445
 21
59.9338
 31
0.0
  0
LINE
  8
0
 62
     0
 10
126.445
 20
59.9338
 30
0.0
 11
126.445
 21
73.9331
 31
0.0
  0
LINE
  8
0
 62
     0
 10
145.495
 20
73.9331
 30
0.0
 11
159.494
 21
73.9331
 31
0.0
  0
LINE
  8
0
 62
     0
 10
159.494
 20
73.9331
 30
0.0
 11
159.494
 21
59.9338
 31
0.0
  0
LINE
  8
0
 62
     0
 10
159.494
 20
59.9338
 30
0.0
 11
145.495
 21
59.9338
 31
0.0
  0
LINE
  8
0
 62
     0
 10
145.495
 20
59.9338
 30
0.0
 11
145.495
 21
73.9331
 31
0.0
  0
LINE
  8
0
 62
     0
 10
164.545
 20
73.9331
 30
0.0
 11
178.544
 21
73.9331
 31
0.0
  0
LINE
  8
0
 62
     0
 10
178.544
 20
73.9331
 30
0.0
 11
178.544
 21
59.9338
 31
0.0
  0
LINE
  8
0
 62
     0
 10
178.544
 20
59.9338
 30
0.0
 11
164.545
 21
59.9338
 31
0.0
  0
LINE
  8
0
 62
     0
 10
164.545
 20
59.9338
 30
0.0
 11
164.545
 21
73.9331
 31
0.0
  0
LINE
  8
0
 62
     0
 10
183.595
 20
73.9331
 30
0.0
 11
197.594
 21
73.9331
 31
0.0
  0
LINE
  8
0
 62
     0
 10
197.594
 20
73.9331
 30
0.0
 11
197.594
 21
59.9338
 31
0.0
  0
LINE
  8
0
 62
     0
 10
197.594
 20
59.9338
 30
0.0
 11
183.595
 21
59.9338
 31
0.0
  0
LINE
  8
0
 62
     0
 10
183.595
 20
59.9338
 30
0.0
 11
183.595
 21
73.9331
 31
0.0
  0
LINE
  8
0
 62
     0
 10
202.645
 20
73.9331
 30
0.0
 11
216.644
 21
73.9331
 31
0.0
  0
LINE
  8
0
 62
     0
 10
216.644
 20
73.9331
 30
0.0
 11
216.644
 21
59.9338
 31
0.0
  0
LINE
  8
0
 62
     0
 10
216.644
 20
59.9338
 30
0.0
 11
202.645
 21
59.9338
 31
0.0
  0
LINE
  8
0
 62
     0
 10
202.645
 20
59.9338
 30
0.0
 11
202.645
 21
73.9331
 31
0.0
  0
LINE
  8
0
 62
     0
 10
221.695
 20
73.9331
 30
0.0
 11
235.694
 21
73.9331
 31
0.0
  0
LINE
  8
0
 62
     0
 10
235.694
 20
73.9331
 30
0.0
 11
235.694
 21
59.9338
 31
0.0
  0
LINE
  8
0
 62
     0
 10
235.694
 20
59.9338
 30
0.0
 11
221.695
 21
59.9338
 31
0.0
  0
LINE
  8
0
 62
     0
 10
221.695
 20
59.9338
 30
0.0
 11
221.695
 21
73.9331
 31
0.0
  0
LINE
  8
0
 62
     0
 10
240.745
 20
73.9331
 30
0.0
 11
254.744
 21
73.9331
 31
0.0
  0
LINE
  8
0
 62
     0
 10
254.744
 20
73.9331
 30
0.0
 11
254.744
 21
59.9338
 31
0.0
  0
LINE
  8
0
 62
     0
 10
254.744
 20
59.9338
 30
0.0
 11
240.745
 21
59.9338
 31
0.0
  0
LINE
  8
0
 62
     0
 10
240.745
 20
59.9338
 30
0.0
 11
240.745
 21
73.9331
 31
0.0
  0
LINE
  8
0
 62
     0
 10
269.32
 20
73.9331
 30
0.0
 11
283.319
 21
73.9331
 31
0.0
  0
LINE
  8
0
 62
     0
 10
283.319
 20
73.9331
 30
0.0
 11
283.319
 21
59.9338
 31
0.0
  0
LINE
  8
0
 62
     0
 10
283.319
 20
59.9338
 30
0.0
 11
269.32
 21
59.9338
 31
0.0
  0
LINE
  8
0
 62
     0
 10
269.32
 20
59.9338
 30
0.0
 11
269.32
 21
73.9331
 31
0.0
  0
LINE
  8
0
 62
     0
 10
288.37
 20
73.9331
 30
0.0
 11
302.369
 21
73.9331
 31
0.0
  0
LINE
  8
0
 62
     0
 10
302.369
 20
73.9331
 30
0.0
 11
302.369
 21
59.9338
 31
0.0
  0
LINE
  8
0
 62
     0
 10
302.369
 20
59.9338
 30
0.0
 11
288.37
 21
59.9338
 31
0.0
  0
LINE
  8
0
 62
     0
 10
288.37
 20
59.9338
 30
0.0
 11
288.37
 21
73.9331
 31
0.0
  0
LINE
  8
0
 62
     0
 10
307.42
 20
73.9331
 30
0.0
 11
321.419
 21
73.9331
 31
0.0
  0
LINE
  8
0
 62
     0
 10
321.419
 20
73.9331
 30
0.0
 11
321.419
 21
59.9338
 31
0.0
  0
LINE
  8
0
 62
     0
 10
321.419
 20
59.9338
 30
0.0
 11
307.42
 21
59.9338
 31
0.0
  0
LINE
  8
0
 62
     0
 10
307.42
 20
59.9338
 30
0.0
 11
307.42
 21
73.9331
 31
0.0
  0
LINE
  8
0
 62
     0
 10
2.61965
 20
92.9831
 30
0.0
 11
16.6192
 21
92.9831
 31
0.0
  0
LINE
  8
0
 62
     0
 10
16.6192
 20
92.9831
 30
0.0
 11
16.6192
 21
78.9838
 31
0.0
  0
LINE
  8
0
 62
     0
 10
16.6192
 20
78.9838
 30
0.0
 11
2.61965
 21
78.9838
 31
0.0
  0
LINE
  8
0
 62
     0
 10
2.61965
 20
78.9838
 30
0.0
 11
2.61965
 21
92.9831
 31
0.0
  0
LINE
  8
0
 62
     0
 10
21.6697
 20
92.9831
 30
0.0
 11
35.669
 21
92.9831
 31
0.0
  0
LINE
  8
0
 62
     0
 10
35.669
 20
92.9831
 30
0.0
 11
35.669
 21
78.9838
 31
0.0
  0
LINE
  8
0
 62
     0
 10
35.669
 20
78.9838
 30
0.0
 11
21.6697
 21
78.9838
 31
0.0
  0
LINE
  8
0
 62
     0
 10
21.6697
 20
78.9838
 30
0.0
 11
21.6697
 21
92.9831
 31
0.0
  0
LINE
  8
0
 62
     0
 10
40.7197
 20
92.9831
 30
0.0
 11
54.719
 21
92.9831
 31
0.0
  0
LINE
  8
0
 62
     0
 10
54.719
 20
92.9831
 30
0.0
 11
54.719
 21
78.9838
 31
0.0
  0
LINE
  8
0
 62
     0
 10
54.719
 20
78.9838
 30
0.0
 11
40.7197
 21
78.9838
 31
0.0
  0
LINE
  8
0
 62
     0
 10
40.7197
 20
78.9838
 30
0.0
 11
40.7197
 21
92.9831
 31
0.0
  0
LINE
  8
0
 62
     0
 10
59.7697
 20
92.9831
 30
0.0
 11
73.769
 21
92.9831
 31
0.0
  0
LINE
  8
0
 62
     0
 10
73.769
 20
92.9831
 30
0.0
 11
73.769
 21
78.9838
 31
0.0
  0
LINE
  8
0
 62
     0
 10
73.769
 20
78.9838
 30
0.0
 11
59.7697
 21
78.9838
 31
0.0
  0
LINE
  8
0
 62
     0
 10
59.7697
 20
78.9838
 30
0.0
 11
59.7697
 21
92.9831
 31
0.0
  0
LINE
  8
0
 62
     0
 10
78.8197
 20
92.9831
 30
0.0
 11
92.819
 21
92.9831
 31
0.0
  0
LINE
  8
0
 62
     0
 10
92.819
 20
92.9831
 30
0.0
 11
92.819
 21
78.9838
 31
0.0
  0
LINE
  8
0
 62
     0
 10
92.819
 20
78.9838
 30
0.0
 11
78.8197
 21
78.9838
 31
0.0
  0
LINE
  8
0
 62
     0
 10
78.8197
 20
78.9838
 30
0.0
 11
78.8197
 21
92.9831
 31
0.0
  0
LINE
  8
0
 62
     0
 10
97.8683
 20
92.9831
 30
0.0
 11
111.869
 21
92.9831
 31
0.0
  0
LINE
  8
0
 62
     0
 10
111.869
 20
92.9831
 30
0.0
 11
111.869
 21
78.9838
 31
0.0
  0
LINE
  8
0
 62
     0
 10
111.869
 20
78.9838
 30
0.0
 11
97.8683
 21
78.9838
 31
0.0
  0
LINE
  8
0
 62
     0
 10
97.8683
 20
78.9838
 30
0.0
 11
97.8683
 21
92.9831
 31
0.0
  0
LINE
  8
0
 62
     0
 10
116.918
 20
92.9831
 30
0.0
 11
130.919
 21
92.9831
 31
0.0
  0
LINE
  8
0
 62
     0
 10
130.919
 20
92.9831
 30
0.0
 11
130.919
 21
78.9838
 31
0.0
  0
LINE
  8
0
 62
     0
 10
130.919
 20
78.9838
 30
0.0
 11
116.918
 21
78.9838
 31
0.0
  0
LINE
  8
0
 62
     0
 10
116.918
 20
78.9838
 30
0.0
 11
116.918
 21
92.9831
 31
0.0
  0
LINE
  8
0
 62
     0
 10
135.97
 20
92.9831
 30
0.0
 11
149.969
 21
92.9831
 31
0.0
  0
LINE
  8
0
 62
     0
 10
149.969
 20
92.9831
 30
0.0
 11
149.969
 21
78.9838
 31
0.0
  0
LINE
  8
0
 62
     0
 10
149.969
 20
78.9838
 30
0.0
 11
135.97
 21
78.9838
 31
0.0
  0
LINE
  8
0
 62
     0
 10
135.97
 20
78.9838
 30
0.0
 11
135.97
 21
92.9831
 31
0.0
  0
LINE
  8
0
 62
     0
 10
155.02
 20
92.9831
 30
0.0
 11
169.019
 21
92.9831
 31
0.0
  0
LINE
  8
0
 62
     0
 10
169.019
 20
92.9831
 30
0.0
 11
169.019
 21
78.9838
 31
0.0
  0
LINE
  8
0
 62
     0
 10
169.019
 20
78.9838
 30
0.0
 11
155.02
 21
78.9838
 31
0.0
  0
LINE
  8
0
 62
     0
 10
155.02
 20
78.9838
 30
0.0
 11
155.02
 21
92.9831
 31
0.0
  0
LINE
  8
0
 62
     0
 10
174.07
 20
92.9831
 30
0.0
 11
188.069
 21
92.9831
 31
0.0
  0
LINE
  8
0
 62
     0
 10
188.069
 20
92.9831
 30
0.0
 11
188.069
 21
78.9838
 31
0.0
  0
LINE
  8
0
 62
     0
 10
188.069
 20
78.9838
 30
0.0
 11
174.07
 21
78.9838
 31
0.0
  0
LINE
  8
0
 62
     0
 10
174.07
 20
78.9838
 30
0.0
 11
174.07
 21
92.9831
 31
0.0
  0
LINE
  8
0
 62
     0
 10
193.12
 20
92.9831
 30
0.0
 11
207.119
 21
92.9831
 31
0.0
  0
LINE
  8
0
 62
     0
 10
207.119
 20
92.9831
 30
0.0
 11
207.119
 21
78.9838
 31
0.0
  0
LINE
  8
0
 62
     0
 10
207.119
 20
78.9838
 30
0.0
 11
193.12
 21
78.9838
 31
0.0
  0
LINE
  8
0
 62
     0
 10
193.12
 20
78.9838
 30
0.0
 11
193.12
 21
92.9831
 31
0.0
  0
LINE
  8
0
 62
     0
 10
212.17
 20
92.9831
 30
0.0
 11
226.169
 21
92.9831
 31
0.0
  0
LINE
  8
0
 62
     0
 10
226.169
 20
92.9831
 30
0.0
 11
226.169
 21
78.9838
 31
0.0
  0
LINE
  8
0
 62
     0
 10
226.169
 20
78.9838
 30
0.0
 11
212.17
 21
78.9838
 31
0.0
  0
LINE
  8
0
 62
     0
 10
212.17
 20
78.9838
 30
0.0
 11
212.17
 21
92.9831
 31
0.0
  0
LINE
  8
0
 62
     0
 10
235.982
 20
92.9831
 30
0.0
 11
249.982
 21
92.9831
 31
0.0
  0
LINE
  8
0
 62
     0
 10
249.982
 20
92.9831
 30
0.0
 11
249.982
 21
78.9838
 31
0.0
  0
LINE
  8
0
 62
     0
 10
249.982
 20
78.9838
 30
0.0
 11
235.982
 21
78.9838
 31
0.0
  0
LINE
  8
0
 62
     0
 10
235.982
 20
78.9838
 30
0.0
 11
235.982
 21
92.9831
 31
0.0
  0
ENDSEC
  0
EOF
