  0
SECTION
  2
HEADER
  9
$ACADVER
  1
AC1009
  9
$FILLMODE
 70
 0
  9
$SPLFRAME
 70
 1
  9
$EXTMIN
 10
0
 20
0
 30
0.0
  9
$EXTMAX
 10
1058.33
 20
1058.33
 30
0.0
  0
ENDSEC
  0
SECTION
  2
TABLES
  0
TABLE
  2
LAYER
 70
1
  0
LAYER
  2
0
 70
     0
 62
     7
  6
CONTINUOUS
  0
ENDTAB
  0
ENDSEC
  0
SECTION
  2
ENTITIES
  0
LINE
  8
0
 62
     0
 10
0.0950846
 20
76.4575
 30
0.0
 11
204.883
 21
76.4575
 31
0.0
  0
LINE
  8
0
 62
     0
 10
204.883
 20
76.4575
 30
0.0
 11
204.883
 21
0.257693
 31
0.0
  0
LINE
  8
0
 62
     0
 10
204.883
 20
0.257693
 30
0.0
 11
0.0950846
 21
0.257693
 31
0.0
  0
LINE
  8
0
 62
     0
 10
0.0950846
 20
0.257693
 30
0.0
 11
0.0950846
 21
76.4575
 31
0.0
  0
LINE
  8
0
 62
     0
 10
5.00091
 20
16.7831
 30
0.0
 11
19.0004
 21
16.7831
 31
0.0
  0
LINE
  8
0
 62
     0
 10
19.0004
 20
16.7831
 30
0.0
 11
19.0004
 21
2.78364
 31
0.0
  0
LINE
  8
0
 62
     0
 10
19.0004
 20
2.78364
 30
0.0
 11
5.00091
 21
2.78364
 31
0.0
  0
LINE
  8
0
 62
     0
 10
5.00091
 20
2.78364
 30
0.0
 11
5.00091
 21
16.7831
 31
0.0
  0
LINE
  8
0
 62
     0
 10
26.4322
 20
16.7831
 30
0.0
 11
40.4315
 21
16.7831
 31
0.0
  0
LINE
  8
0
 62
     0
 10
40.4315
 20
16.7831
 30
0.0
 11
40.4315
 21
2.78364
 31
0.0
  0
LINE
  8
0
 62
     0
 10
40.4315
 20
2.78364
 30
0.0
 11
26.4322
 21
2.78364
 31
0.0
  0
LINE
  8
0
 62
     0
 10
26.4322
 20
2.78364
 30
0.0
 11
26.4322
 21
16.7831
 31
0.0
  0
LINE
  8
0
 62
     0
 10
45.4822
 20
16.7831
 30
0.0
 11
59.4815
 21
16.7831
 31
0.0
  0
LINE
  8
0
 62
     0
 10
59.4815
 20
16.7831
 30
0.0
 11
59.4815
 21
2.78364
 31
0.0
  0
LINE
  8
0
 62
     0
 10
59.4815
 20
2.78364
 30
0.0
 11
45.4822
 21
2.78364
 31
0.0
  0
LINE
  8
0
 62
     0
 10
45.4822
 20
2.78364
 30
0.0
 11
45.4822
 21
16.7831
 31
0.0
  0
LINE
  8
0
 62
     0
 10
64.5322
 20
16.7831
 30
0.0
 11
78.5315
 21
16.7831
 31
0.0
  0
LINE
  8
0
 62
     0
 10
78.5315
 20
16.7831
 30
0.0
 11
78.5315
 21
2.78364
 31
0.0
  0
LINE
  8
0
 62
     0
 10
78.5315
 20
2.78364
 30
0.0
 11
64.5322
 21
2.78364
 31
0.0
  0
LINE
  8
0
 62
     0
 10
64.5322
 20
2.78364
 30
0.0
 11
64.5322
 21
16.7831
 31
0.0
  0
LINE
  8
0
 62
     0
 10
83.5822
 20
16.7831
 30
0.0
 11
97.5815
 21
16.7831
 31
0.0
  0
LINE
  8
0
 62
     0
 10
97.5815
 20
16.7831
 30
0.0
 11
97.5815
 21
2.78364
 31
0.0
  0
LINE
  8
0
 62
     0
 10
97.5815
 20
2.78364
 30
0.0
 11
83.5822
 21
2.78364
 31
0.0
  0
LINE
  8
0
 62
     0
 10
83.5822
 20
2.78364
 30
0.0
 11
83.5822
 21
16.7831
 31
0.0
  0
LINE
  8
0
 62
     0
 10
102.632
 20
16.7831
 30
0.0
 11
116.632
 21
16.7831
 31
0.0
  0
LINE
  8
0
 62
     0
 10
116.632
 20
16.7831
 30
0.0
 11
116.632
 21
2.78364
 31
0.0
  0
LINE
  8
0
 62
     0
 10
116.632
 20
2.78364
 30
0.0
 11
102.632
 21
2.78364
 31
0.0
  0
LINE
  8
0
 62
     0
 10
102.632
 20
2.78364
 30
0.0
 11
102.632
 21
16.7831
 31
0.0
  0
LINE
  8
0
 62
     0
 10
121.682
 20
16.7831
 30
0.0
 11
135.682
 21
16.7831
 31
0.0
  0
LINE
  8
0
 62
     0
 10
135.682
 20
16.7831
 30
0.0
 11
135.682
 21
2.78364
 31
0.0
  0
LINE
  8
0
 62
     0
 10
135.682
 20
2.78364
 30
0.0
 11
121.682
 21
2.78364
 31
0.0
  0
LINE
  8
0
 62
     0
 10
121.682
 20
2.78364
 30
0.0
 11
121.682
 21
16.7831
 31
0.0
  0
LINE
  8
0
 62
     0
 10
140.732
 20
16.7831
 30
0.0
 11
154.732
 21
16.7831
 31
0.0
  0
LINE
  8
0
 62
     0
 10
154.732
 20
16.7831
 30
0.0
 11
154.732
 21
2.78364
 31
0.0
  0
LINE
  8
0
 62
     0
 10
154.732
 20
2.78364
 30
0.0
 11
140.732
 21
2.78364
 31
0.0
  0
LINE
  8
0
 62
     0
 10
140.732
 20
2.78364
 30
0.0
 11
140.732
 21
16.7831
 31
0.0
  0
LINE
  8
0
 62
     0
 10
159.782
 20
16.7831
 30
0.0
 11
173.782
 21
16.7831
 31
0.0
  0
LINE
  8
0
 62
     0
 10
173.782
 20
16.7831
 30
0.0
 11
173.782
 21
2.78364
 31
0.0
  0
LINE
  8
0
 62
     0
 10
173.782
 20
2.78364
 30
0.0
 11
159.782
 21
2.78364
 31
0.0
  0
LINE
  8
0
 62
     0
 10
159.782
 20
2.78364
 30
0.0
 11
159.782
 21
16.7831
 31
0.0
  0
LINE
  8
0
 62
     0
 10
183.595
 20
16.7831
 30
0.0
 11
197.594
 21
16.7831
 31
0.0
  0
LINE
  8
0
 62
     0
 10
197.594
 20
16.7831
 30
0.0
 11
197.594
 21
2.78364
 31
0.0
  0
LINE
  8
0
 62
     0
 10
197.594
 20
2.78364
 30
0.0
 11
183.595
 21
2.78364
 31
0.0
  0
LINE
  8
0
 62
     0
 10
183.595
 20
2.78364
 30
0.0
 11
183.595
 21
16.7831
 31
0.0
  0
LINE
  8
0
 62
     0
 10
16.9072
 20
35.833
 30
0.0
 11
30.9066
 21
35.833
 31
0.0
  0
LINE
  8
0
 62
     0
 10
30.9066
 20
35.833
 30
0.0
 11
30.9066
 21
21.8336
 31
0.0
  0
LINE
  8
0
 62
     0
 10
30.9066
 20
21.8336
 30
0.0
 11
16.9072
 21
21.8336
 31
0.0
  0
LINE
  8
0
 62
     0
 10
16.9072
 20
21.8336
 30
0.0
 11
16.9072
 21
35.833
 31
0.0
  0
LINE
  8
0
 62
     0
 10
35.9572
 20
35.833
 30
0.0
 11
49.9565
 21
35.833
 31
0.0
  0
LINE
  8
0
 62
     0
 10
49.9565
 20
35.833
 30
0.0
 11
49.9565
 21
21.8336
 31
0.0
  0
LINE
  8
0
 62
     0
 10
49.9565
 20
21.8336
 30
0.0
 11
35.9572
 21
21.8336
 31
0.0
  0
LINE
  8
0
 62
     0
 10
35.9572
 20
21.8336
 30
0.0
 11
35.9572
 21
35.833
 31
0.0
  0
LINE
  8
0
 62
     0
 10
55.0072
 20
35.833
 30
0.0
 11
69.0065
 21
35.833
 31
0.0
  0
LINE
  8
0
 62
     0
 10
69.0065
 20
35.833
 30
0.0
 11
69.0065
 21
21.8336
 31
0.0
  0
LINE
  8
0
 62
     0
 10
69.0065
 20
21.8336
 30
0.0
 11
55.0072
 21
21.8336
 31
0.0
  0
LINE
  8
0
 62
     0
 10
55.0072
 20
21.8336
 30
0.0
 11
55.0072
 21
35.833
 31
0.0
  0
LINE
  8
0
 62
     0
 10
74.0572
 20
35.833
 30
0.0
 11
88.0565
 21
35.833
 31
0.0
  0
LINE
  8
0
 62
     0
 10
88.0565
 20
35.833
 30
0.0
 11
88.0565
 21
21.8336
 31
0.0
  0
LINE
  8
0
 62
     0
 10
88.0565
 20
21.8336
 30
0.0
 11
74.0572
 21
21.8336
 31
0.0
  0
LINE
  8
0
 62
     0
 10
74.0572
 20
21.8336
 30
0.0
 11
74.0572
 21
35.833
 31
0.0
  0
LINE
  8
0
 62
     0
 10
93.1072
 20
35.833
 30
0.0
 11
107.107
 21
35.833
 31
0.0
  0
LINE
  8
0
 62
     0
 10
107.107
 20
35.833
 30
0.0
 11
107.107
 21
21.8336
 31
0.0
  0
LINE
  8
0
 62
     0
 10
107.107
 20
21.8336
 30
0.0
 11
93.1072
 21
21.8336
 31
0.0
  0
LINE
  8
0
 62
     0
 10
93.1072
 20
21.8336
 30
0.0
 11
93.1072
 21
35.833
 31
0.0
  0
LINE
  8
0
 62
     0
 10
112.157
 20
35.833
 30
0.0
 11
126.157
 21
35.833
 31
0.0
  0
LINE
  8
0
 62
     0
 10
126.157
 20
35.833
 30
0.0
 11
126.157
 21
21.8336
 31
0.0
  0
LINE
  8
0
 62
     0
 10
126.157
 20
21.8336
 30
0.0
 11
112.157
 21
21.8336
 31
0.0
  0
LINE
  8
0
 62
     0
 10
112.157
 20
21.8336
 30
0.0
 11
112.157
 21
35.833
 31
0.0
  0
LINE
  8
0
 62
     0
 10
131.207
 20
35.833
 30
0.0
 11
145.207
 21
35.833
 31
0.0
  0
LINE
  8
0
 62
     0
 10
145.207
 20
35.833
 30
0.0
 11
145.207
 21
21.8336
 31
0.0
  0
LINE
  8
0
 62
     0
 10
145.207
 20
21.8336
 30
0.0
 11
131.207
 21
21.8336
 31
0.0
  0
LINE
  8
0
 62
     0
 10
131.207
 20
21.8336
 30
0.0
 11
131.207
 21
35.833
 31
0.0
  0
LINE
  8
0
 62
     0
 10
150.257
 20
35.833
 30
0.0
 11
164.257
 21
35.833
 31
0.0
  0
LINE
  8
0
 62
     0
 10
164.257
 20
35.833
 30
0.0
 11
164.257
 21
21.8336
 31
0.0
  0
LINE
  8
0
 62
     0
 10
164.257
 20
21.8336
 30
0.0
 11
150.257
 21
21.8336
 31
0.0
  0
LINE
  8
0
 62
     0
 10
150.257
 20
21.8336
 30
0.0
 11
150.257
 21
35.833
 31
0.0
  0
LINE
  8
0
 62
     0
 10
169.307
 20
35.833
 30
0.0
 11
183.307
 21
35.833
 31
0.0
  0
LINE
  8
0
 62
     0
 10
183.307
 20
35.833
 30
0.0
 11
183.307
 21
21.8336
 31
0.0
  0
LINE
  8
0
 62
     0
 10
183.307
 20
21.8336
 30
0.0
 11
169.307
 21
21.8336
 31
0.0
  0
LINE
  8
0
 62
     0
 10
169.307
 20
21.8336
 30
0.0
 11
169.307
 21
35.833
 31
0.0
  0
LINE
  8
0
 62
     0
 10
188.357
 20
35.833
 30
0.0
 11
202.357
 21
35.833
 31
0.0
  0
LINE
  8
0
 62
     0
 10
202.357
 20
35.833
 30
0.0
 11
202.357
 21
21.8336
 31
0.0
  0
LINE
  8
0
 62
     0
 10
202.357
 20
21.8336
 30
0.0
 11
188.357
 21
21.8336
 31
0.0
  0
LINE
  8
0
 62
     0
 10
188.357
 20
21.8336
 30
0.0
 11
188.357
 21
35.833
 31
0.0
  0
LINE
  8
0
 62
     0
 10
12.1447
 20
54.8831
 30
0.0
 11
26.1441
 21
54.8831
 31
0.0
  0
LINE
  8
0
 62
     0
 10
26.1441
 20
54.8831
 30
0.0
 11
26.1441
 21
40.8838
 31
0.0
  0
LINE
  8
0
 62
     0
 10
26.1441
 20
40.8838
 30
0.0
 11
12.1447
 21
40.8838
 31
0.0
  0
LINE
  8
0
 62
     0
 10
12.1447
 20
40.8838
 30
0.0
 11
12.1447
 21
54.8831
 31
0.0
  0
LINE
  8
0
 62
     0
 10
31.1947
 20
54.8831
 30
0.0
 11
45.194
 21
54.8831
 31
0.0
  0
LINE
  8
0
 62
     0
 10
45.194
 20
54.8831
 30
0.0
 11
45.194
 21
40.8838
 31
0.0
  0
LINE
  8
0
 62
     0
 10
45.194
 20
40.8838
 30
0.0
 11
31.1947
 21
40.8838
 31
0.0
  0
LINE
  8
0
 62
     0
 10
31.1947
 20
40.8838
 30
0.0
 11
31.1947
 21
54.8831
 31
0.0
  0
LINE
  8
0
 62
     0
 10
50.2447
 20
54.8831
 30
0.0
 11
64.244
 21
54.8831
 31
0.0
  0
LINE
  8
0
 62
     0
 10
64.244
 20
54.8831
 30
0.0
 11
64.244
 21
40.8838
 31
0.0
  0
LINE
  8
0
 62
     0
 10
64.244
 20
40.8838
 30
0.0
 11
50.2447
 21
40.8838
 31
0.0
  0
LINE
  8
0
 62
     0
 10
50.2447
 20
40.8838
 30
0.0
 11
50.2447
 21
54.8831
 31
0.0
  0
LINE
  8
0
 62
     0
 10
69.2947
 20
54.8831
 30
0.0
 11
83.294
 21
54.8831
 31
0.0
  0
LINE
  8
0
 62
     0
 10
83.294
 20
54.8831
 30
0.0
 11
83.294
 21
40.8838
 31
0.0
  0
LINE
  8
0
 62
     0
 10
83.294
 20
40.8838
 30
0.0
 11
69.2947
 21
40.8838
 31
0.0
  0
LINE
  8
0
 62
     0
 10
69.2947
 20
40.8838
 30
0.0
 11
69.2947
 21
54.8831
 31
0.0
  0
LINE
  8
0
 62
     0
 10
88.3447
 20
54.8831
 30
0.0
 11
102.344
 21
54.8831
 31
0.0
  0
LINE
  8
0
 62
     0
 10
102.344
 20
54.8831
 30
0.0
 11
102.344
 21
40.8838
 31
0.0
  0
LINE
  8
0
 62
     0
 10
102.344
 20
40.8838
 30
0.0
 11
88.3447
 21
40.8838
 31
0.0
  0
LINE
  8
0
 62
     0
 10
88.3447
 20
40.8838
 30
0.0
 11
88.3447
 21
54.8831
 31
0.0
  0
LINE
  8
0
 62
     0
 10
107.395
 20
54.8831
 30
0.0
 11
121.394
 21
54.8831
 31
0.0
  0
LINE
  8
0
 62
     0
 10
121.394
 20
54.8831
 30
0.0
 11
121.394
 21
40.8838
 31
0.0
  0
LINE
  8
0
 62
     0
 10
121.394
 20
40.8838
 30
0.0
 11
107.395
 21
40.8838
 31
0.0
  0
LINE
  8
0
 62
     0
 10
107.395
 20
40.8838
 30
0.0
 11
107.395
 21
54.8831
 31
0.0
  0
LINE
  8
0
 62
     0
 10
126.445
 20
54.8831
 30
0.0
 11
140.444
 21
54.8831
 31
0.0
  0
LINE
  8
0
 62
     0
 10
140.444
 20
54.8831
 30
0.0
 11
140.444
 21
40.8838
 31
0.0
  0
LINE
  8
0
 62
     0
 10
140.444
 20
40.8838
 30
0.0
 11
126.445
 21
40.8838
 31
0.0
  0
LINE
  8
0
 62
     0
 10
126.445
 20
40.8838
 30
0.0
 11
126.445
 21
54.8831
 31
0.0
  0
LINE
  8
0
 62
     0
 10
145.495
 20
54.8831
 30
0.0
 11
159.494
 21
54.8831
 31
0.0
  0
LINE
  8
0
 62
     0
 10
159.494
 20
54.8831
 30
0.0
 11
159.494
 21
40.8838
 31
0.0
  0
LINE
  8
0
 62
     0
 10
159.494
 20
40.8838
 30
0.0
 11
145.495
 21
40.8838
 31
0.0
  0
LINE
  8
0
 62
     0
 10
145.495
 20
40.8838
 30
0.0
 11
145.495
 21
54.8831
 31
0.0
  0
LINE
  8
0
 62
     0
 10
164.545
 20
54.8831
 30
0.0
 11
178.544
 21
54.8831
 31
0.0
  0
LINE
  8
0
 62
     0
 10
178.544
 20
54.8831
 30
0.0
 11
178.544
 21
40.8838
 31
0.0
  0
LINE
  8
0
 62
     0
 10
178.544
 20
40.8838
 30
0.0
 11
164.545
 21
40.8838
 31
0.0
  0
LINE
  8
0
 62
     0
 10
164.545
 20
40.8838
 30
0.0
 11
164.545
 21
54.8831
 31
0.0
  0
LINE
  8
0
 62
     0
 10
183.595
 20
54.8831
 30
0.0
 11
197.594
 21
54.8831
 31
0.0
  0
LINE
  8
0
 62
     0
 10
197.594
 20
54.8831
 30
0.0
 11
197.594
 21
40.8838
 31
0.0
  0
LINE
  8
0
 62
     0
 10
197.594
 20
40.8838
 30
0.0
 11
183.595
 21
40.8838
 31
0.0
  0
LINE
  8
0
 62
     0
 10
183.595
 20
40.8838
 30
0.0
 11
183.595
 21
54.8831
 31
0.0
  0
LINE
  8
0
 62
     0
 10
2.61965
 20
73.9331
 30
0.0
 11
16.6192
 21
73.9331
 31
0.0
  0
LINE
  8
0
 62
     0
 10
16.6192
 20
73.9331
 30
0.0
 11
16.6192
 21
59.9338
 31
0.0
  0
LINE
  8
0
 62
     0
 10
16.6192
 20
59.9338
 30
0.0
 11
2.61965
 21
59.9338
 31
0.0
  0
LINE
  8
0
 62
     0
 10
2.61965
 20
59.9338
 30
0.0
 11
2.61965
 21
73.9331
 31
0.0
  0
LINE
  8
0
 62
     0
 10
21.6697
 20
73.9331
 30
0.0
 11
35.669
 21
73.9331
 31
0.0
  0
LINE
  8
0
 62
     0
 10
35.669
 20
73.9331
 30
0.0
 11
35.669
 21
59.9338
 31
0.0
  0
LINE
  8
0
 62
     0
 10
35.669
 20
59.9338
 30
0.0
 11
21.6697
 21
59.9338
 31
0.0
  0
LINE
  8
0
 62
     0
 10
21.6697
 20
59.9338
 30
0.0
 11
21.6697
 21
73.9331
 31
0.0
  0
LINE
  8
0
 62
     0
 10
40.7197
 20
73.9331
 30
0.0
 11
54.719
 21
73.9331
 31
0.0
  0
LINE
  8
0
 62
     0
 10
54.719
 20
73.9331
 30
0.0
 11
54.719
 21
59.9338
 31
0.0
  0
LINE
  8
0
 62
     0
 10
54.719
 20
59.9338
 30
0.0
 11
40.7197
 21
59.9338
 31
0.0
  0
LINE
  8
0
 62
     0
 10
40.7197
 20
59.9338
 30
0.0
 11
40.7197
 21
73.9331
 31
0.0
  0
LINE
  8
0
 62
     0
 10
59.7697
 20
73.9331
 30
0.0
 11
73.769
 21
73.9331
 31
0.0
  0
LINE
  8
0
 62
     0
 10
73.769
 20
73.9331
 30
0.0
 11
73.769
 21
59.9338
 31
0.0
  0
LINE
  8
0
 62
     0
 10
73.769
 20
59.9338
 30
0.0
 11
59.7697
 21
59.9338
 31
0.0
  0
LINE
  8
0
 62
     0
 10
59.7697
 20
59.9338
 30
0.0
 11
59.7697
 21
73.9331
 31
0.0
  0
LINE
  8
0
 62
     0
 10
78.8197
 20
73.9331
 30
0.0
 11
92.819
 21
73.9331
 31
0.0
  0
LINE
  8
0
 62
     0
 10
92.819
 20
73.9331
 30
0.0
 11
92.819
 21
59.9338
 31
0.0
  0
LINE
  8
0
 62
     0
 10
92.819
 20
59.9338
 30
0.0
 11
78.8197
 21
59.9338
 31
0.0
  0
LINE
  8
0
 62
     0
 10
78.8197
 20
59.9338
 30
0.0
 11
78.8197
 21
73.9331
 31
0.0
  0
LINE
  8
0
 62
     0
 10
97.8683
 20
73.9331
 30
0.0
 11
111.869
 21
73.9331
 31
0.0
  0
LINE
  8
0
 62
     0
 10
111.869
 20
73.9331
 30
0.0
 11
111.869
 21
59.9338
 31
0.0
  0
LINE
  8
0
 62
     0
 10
111.869
 20
59.9338
 30
0.0
 11
97.8683
 21
59.9338
 31
0.0
  0
LINE
  8
0
 62
     0
 10
97.8683
 20
59.9338
 30
0.0
 11
97.8683
 21
73.9331
 31
0.0
  0
LINE
  8
0
 62
     0
 10
116.918
 20
73.9331
 30
0.0
 11
130.919
 21
73.9331
 31
0.0
  0
LINE
  8
0
 62
     0
 10
130.919
 20
73.9331
 30
0.0
 11
130.919
 21
59.9338
 31
0.0
  0
LINE
  8
0
 62
     0
 10
130.919
 20
59.9338
 30
0.0
 11
116.918
 21
59.9338
 31
0.0
  0
LINE
  8
0
 62
     0
 10
116.918
 20
59.9338
 30
0.0
 11
116.918
 21
73.9331
 31
0.0
  0
LINE
  8
0
 62
     0
 10
135.97
 20
73.9331
 30
0.0
 11
149.969
 21
73.9331
 31
0.0
  0
LINE
  8
0
 62
     0
 10
149.969
 20
73.9331
 30
0.0
 11
149.969
 21
59.9338
 31
0.0
  0
LINE
  8
0
 62
     0
 10
149.969
 20
59.9338
 30
0.0
 11
135.97
 21
59.9338
 31
0.0
  0
LINE
  8
0
 62
     0
 10
135.97
 20
59.9338
 30
0.0
 11
135.97
 21
73.9331
 31
0.0
  0
LINE
  8
0
 62
     0
 10
155.02
 20
73.9331
 30
0.0
 11
169.019
 21
73.9331
 31
0.0
  0
LINE
  8
0
 62
     0
 10
169.019
 20
73.9331
 30
0.0
 11
169.019
 21
59.9338
 31
0.0
  0
LINE
  8
0
 62
     0
 10
169.019
 20
59.9338
 30
0.0
 11
155.02
 21
59.9338
 31
0.0
  0
LINE
  8
0
 62
     0
 10
155.02
 20
59.9338
 30
0.0
 11
155.02
 21
73.9331
 31
0.0
  0
LINE
  8
0
 62
     0
 10
174.07
 20
73.9331
 30
0.0
 11
188.069
 21
73.9331
 31
0.0
  0
LINE
  8
0
 62
     0
 10
188.069
 20
73.9331
 30
0.0
 11
188.069
 21
59.9338
 31
0.0
  0
LINE
  8
0
 62
     0
 10
188.069
 20
59.9338
 30
0.0
 11
174.07
 21
59.9338
 31
0.0
  0
LINE
  8
0
 62
     0
 10
174.07
 20
59.9338
 30
0.0
 11
174.07
 21
73.9331
 31
0.0
  0
ENDSEC
  0
EOF
